solid no_name
facet normal -0.0 1.0 -0.0
   outer loop
      vertex -2237.5862 1792.1780999999999 636.0960000000003
      vertex -2226.9674963227103 1792.1780999999999 596.0961505459852
      vertex -2251.9674963227103 1792.1780999999999 596.0961505459851
   endloop
endfacet
facet normal -0.0 1.0 -0.0
   outer loop
      vertex -2226.9674963227103 1792.1780999999999 596.0961505459852
      vertex -2237.5862 1792.1780999999999 636.0960000000003
      vertex -2227.0022 1792.1780999999999 636.0960000000008
   endloop
endfacet
facet normal -0.941027157837846 -3.074854058043883e-14 0.33833103347406074
   outer loop
      vertex -2237.5862 1792.1780999999999 636.0960000000003
      vertex -2251.9674963227103 1790.1781000000003 596.0961505459851
      vertex -2237.5862 1790.1780999999996 636.096
   endloop
endfacet
facet normal -0.941027157837846 -3.074854058043883e-14 0.33833103347406074
   outer loop
      vertex -2251.9674963227103 1790.1781000000003 596.0961505459851
      vertex -2237.5862 1792.1780999999999 636.0960000000003
      vertex -2251.9674963227103 1792.1780999999999 596.0961505459851
   endloop
endfacet
facet normal -6.350476062321307e-15 -1.0 -1.1482843967867194e-14
   outer loop
      vertex -2222.9913963227104 1790.1780999999999 608.3461505459851
      vertex -2251.9674963227103 1790.1781000000003 592.0961505459851
      vertex -2222.9913963227104 1790.1780999999999 592.0961505459851
   endloop
endfacet
facet normal -6.350476062321307e-15 -1.0 -1.1482843967867194e-14
   outer loop
      vertex -2251.9674963227103 1790.1781000000003 592.0961505459851
      vertex -2222.9913963227104 1790.1780999999999 608.3461505459851
      vertex -2251.9674963227103 1790.1781000000003 596.0961505459851
   endloop
endfacet
facet normal -6.350476062321307e-15 -1.0 -1.1482843967867194e-14
   outer loop
      vertex -2251.9674963227103 1790.1781000000003 596.0961505459851
      vertex -2222.9913963227104 1790.1780999999999 608.3461505459851
      vertex -2237.5862 1790.1780999999996 636.096
   endloop
endfacet
facet normal -6.350476062321307e-15 -1.0 -1.1482843967867194e-14
   outer loop
      vertex -2237.5862 1790.1780999999996 636.096
      vertex -2222.9913963227104 1790.1780999999999 608.3461505459851
      vertex -2223.0261 1790.1780999999999 621.5960000000001
   endloop
endfacet
facet normal -6.350476062321307e-15 -1.0 -1.1482843967867194e-14
   outer loop
      vertex -2237.5862 1790.1780999999996 636.096
      vertex -2223.0261 1790.1780999999999 621.5960000000001
      vertex -2223.0261 1790.1780999999996 640.096
   endloop
endfacet
facet normal -6.350476062321307e-15 -1.0 -1.1482843967867194e-14
   outer loop
      vertex -2237.5862 1790.1780999999996 636.096
      vertex -2223.0261 1790.1780999999996 640.096
      vertex -2237.5862 1790.1780999999996 640.096
   endloop
endfacet
facet normal -0.999999623639499 -1.6344994861819674e-17 -0.0008675948710342552
   outer loop
      vertex -2227.0022 1816.1781 636.096
      vertex -2226.9674963227103 1792.1780999999999 596.0961505459852
      vertex -2227.0022 1792.1780999999999 636.0960000000008
   endloop
endfacet
facet normal -0.999999623639499 -1.6344994861819674e-17 -0.0008675948710342552
   outer loop
      vertex -2226.9674963227103 1792.1780999999999 596.0961505459852
      vertex -2227.0022 1816.1781 636.096
      vertex -2226.9674963227103 1816.1781 596.0961505459851
   endloop
endfacet
facet normal 0.7068152904069368 -0.7073981518543552 0.0
   outer loop
      vertex -2246.8634963227105 1811.7740000000001 592.0961505459851
      vertex -2247.8954963227106 1810.4281 596.0961505459851
      vertex -2247.8954963227106 1810.4281 592.0961505459851
   endloop
endfacet
facet normal 0.7068152904069368 -0.7073981518543552 0.0
   outer loop
      vertex -2247.8954963227106 1810.4281 596.0961505459851
      vertex -2246.8634963227105 1811.7740000000001 592.0961505459851
      vertex -2246.8634963227105 1811.7740000000001 596.0961505459851
   endloop
endfacet
facet normal -0.7071067811865476 -0.7071067811865476 0.0
   outer loop
      vertex -2237.6693963227103 1811.7740000000001 596.0961505459851
      vertex -2236.6373963227106 1810.4281 592.0961505459851
      vertex -2236.6373963227106 1810.4281 596.0961505459851
   endloop
endfacet
facet normal -0.7071067811865476 -0.7071067811865476 0.0
   outer loop
      vertex -2236.6373963227106 1810.4281 592.0961505459851
      vertex -2237.6693963227103 1811.7740000000001 596.0961505459851
      vertex -2237.6693963227103 1811.7740000000001 592.0961505459851
   endloop
endfacet
facet normal -1.0 0.0 0.0
   outer loop
      vertex -2237.5862 1816.1781 640.096
      vertex -2237.5862 1790.1780999999996 636.096
      vertex -2237.5862 1790.1780999999996 640.096
   endloop
endfacet
facet normal -1.0 0.0 0.0
   outer loop
      vertex -2237.5862 1790.1780999999996 636.096
      vertex -2237.5862 1816.1781 640.096
      vertex -2237.5862 1792.1780999999999 636.0960000000003
   endloop
endfacet
facet normal -1.0 0.0 0.0
   outer loop
      vertex -2237.5862 1792.1780999999999 636.0960000000003
      vertex -2237.5862 1816.1781 640.096
      vertex -2237.5862 1816.1781 636.096
   endloop
endfacet
facet normal -0.00012496959847409418 -0.9999999905904914 5.658282967421802e-05
   outer loop
      vertex -2242.2652963227106 1813.6781 596.0961505459851
      vertex -2242.6092963227106 1813.6321000000003 592.0961505459851
      vertex -2242.2652963227106 1813.6781 592.0961505459851
   endloop
endfacet
facet normal -0.00012496959847409418 -0.9999999905904914 5.658282967421802e-05
   outer loop
      vertex -2242.2652963227106 1813.6781 596.0961505459851
      vertex -2243.9493963227105 1813.4561000000003 592.0961505459851
      vertex -2242.6092963227106 1813.6321000000003 592.0961505459851
   endloop
endfacet
facet normal -0.00012496959847409418 -0.9999999905904914 5.658282967421802e-05
   outer loop
      vertex -2243.9493963227105 1813.4561000000003 592.0961505459851
      vertex -2242.2652963227106 1813.6781 596.0961505459851
      vertex -2243.9493963227105 1813.4561000000003 596.0961505459851
   endloop
endfacet
facet normal 0.25919960636612854 -0.9658237729904839 5.988380390639798e-05
   outer loop
      vertex -2243.9493963227105 1813.4561000000003 596.0961505459851
      vertex -2245.5152963227106 1812.806 592.0961505459851
      vertex -2243.9493963227105 1813.4561000000003 592.0961505459851
   endloop
endfacet
facet normal 0.25919960636612854 -0.9658237729904839 5.988380390639798e-05
   outer loop
      vertex -2245.5152963227106 1812.806 592.0961505459851
      vertex -2243.9493963227105 1813.4561000000003 596.0961505459851
      vertex -2245.5152963227106 1812.806 596.0961505459851
   endloop
endfacet
facet normal -0.0 1.0 -0.0
   outer loop
      vertex -2237.5862 1816.1781 640.096
      vertex -2227.0022 1816.1781 636.096
      vertex -2237.5862 1816.1781 636.096
   endloop
endfacet
facet normal -0.0 1.0 -0.0
   outer loop
      vertex -2227.0022 1816.1781 636.096
      vertex -2237.5862 1816.1781 640.096
      vertex -2223.0261 1816.1781 640.096
   endloop
endfacet
facet normal -0.0 1.0 -0.0
   outer loop
      vertex -2251.9674963227103 1816.1781 596.0961505459851
      vertex -2222.9913963227104 1816.1781 592.0961505459851
      vertex -2251.9674963227103 1816.1781 592.0961505459851
   endloop
endfacet
facet normal -0.0 1.0 -0.0
   outer loop
      vertex -2222.9913963227104 1816.1781 592.0961505459851
      vertex -2251.9674963227103 1816.1781 596.0961505459851
      vertex -2226.9674963227103 1816.1781 596.0961505459851
   endloop
endfacet
facet normal -0.0 1.0 -0.0
   outer loop
      vertex -2222.9913963227104 1816.1781 592.0961505459851
      vertex -2226.9674963227103 1816.1781 596.0961505459851
      vertex -2222.9913963227104 1816.1781 608.3461505459851
   endloop
endfacet
facet normal -0.0 1.0 -0.0
   outer loop
      vertex -2222.9913963227104 1816.1781 608.3461505459851
      vertex -2226.9674963227103 1816.1781 596.0961505459851
      vertex -2227.0022 1816.1781 636.096
   endloop
endfacet
facet normal -0.0 1.0 -0.0
   outer loop
      vertex -2222.9913963227104 1816.1781 608.3461505459851
      vertex -2227.0022 1816.1781 636.096
      vertex -2223.0261 1816.1781 621.596
   endloop
endfacet
facet normal -0.0 1.0 -0.0
   outer loop
      vertex -2223.0261 1816.1781 621.596
      vertex -2227.0022 1816.1781 636.096
      vertex -2223.0261 1816.1781 640.096
   endloop
endfacet
facet normal -0.0 -0.0 1.0
   outer loop
      vertex -2237.5862 1790.1780999999996 640.096
      vertex -2234.226051652578 1797.8663619097952 640.096
      vertex -2237.5862 1816.1781 640.096
   endloop
endfacet
facet normal -0.0 -0.0 1.0
   outer loop
      vertex -2234.226051652578 1797.8663619097952 640.096
      vertex -2237.5862 1790.1780999999996 640.096
      vertex -2234.026250807569 1797.3840000000002 640.096
   endloop
endfacet
facet normal -0.0 -0.0 1.0
   outer loop
      vertex -2234.026250807569 1797.3840000000002 640.096
      vertex -2237.5862 1790.1780999999996 640.096
      vertex -2233.708413562373 1796.9697864376271 640.096
   endloop
endfacet
facet normal -0.0 -0.0 1.0
   outer loop
      vertex -2233.708413562373 1796.9697864376271 640.096
      vertex -2237.5862 1790.1780999999996 640.096
      vertex -2233.2942 1796.6519491924314 640.096
   endloop
endfacet
facet normal -0.0 -0.0 1.0
   outer loop
      vertex -2233.2942 1796.6519491924314 640.096
      vertex -2237.5862 1790.1780999999996 640.096
      vertex -2223.0261 1790.1780999999996 640.096
   endloop
endfacet
facet normal -0.0 -0.0 1.0
   outer loop
      vertex -2237.5862 1816.1781 640.096
      vertex -2234.226051652578 1797.8663619097952 640.096
      vertex -2234.2942 1798.3840000000002 640.096
   endloop
endfacet
facet normal -0.0 -0.0 1.0
   outer loop
      vertex -2237.5862 1816.1781 640.096
      vertex -2234.2942 1798.3840000000002 640.096
      vertex -2234.2942000000003 1810.384 640.096
   endloop
endfacet
facet normal -0.0 -0.0 1.0
   outer loop
      vertex -2233.2942 1796.6519491924314 640.096
      vertex -2223.0261 1790.1780999999996 640.096
      vertex -2232.811838090205 1796.4521483474223 640.096
   endloop
endfacet
facet normal -0.0 -0.0 1.0
   outer loop
      vertex -2232.811838090205 1796.4521483474223 640.096
      vertex -2223.0261 1790.1780999999996 640.096
      vertex -2232.2942000000003 1796.3840000000005 640.096
   endloop
endfacet
facet normal -0.0 -0.0 1.0
   outer loop
      vertex -2232.2942000000003 1796.3840000000005 640.096
      vertex -2223.0261 1790.1780999999996 640.096
      vertex -2231.776561909795 1796.4521483474223 640.096
   endloop
endfacet
facet normal -0.0 -0.0 1.0
   outer loop
      vertex -2231.776561909795 1796.4521483474223 640.096
      vertex -2223.0261 1790.1780999999996 640.096
      vertex -2231.2942 1796.6519491924314 640.096
   endloop
endfacet
facet normal -0.0 -0.0 1.0
   outer loop
      vertex -2231.2942 1796.6519491924314 640.096
      vertex -2223.0261 1790.1780999999996 640.096
      vertex -2230.879986437627 1796.9697864376271 640.096
   endloop
endfacet
facet normal -0.0 -0.0 1.0
   outer loop
      vertex -2230.879986437627 1796.9697864376271 640.096
      vertex -2223.0261 1790.1780999999996 640.096
      vertex -2230.562149192431 1797.3840000000005 640.096
   endloop
endfacet
facet normal -0.0 -0.0 1.0
   outer loop
      vertex -2230.562149192431 1797.3840000000005 640.096
      vertex -2223.0261 1790.1780999999996 640.096
      vertex -2230.362348347422 1797.8663619097952 640.096
   endloop
endfacet
facet normal -0.0 -0.0 1.0
   outer loop
      vertex -2230.362348347422 1797.8663619097952 640.096
      vertex -2223.0261 1790.1780999999996 640.096
      vertex -2230.2942000000003 1798.3840000000002 640.096
   endloop
endfacet
facet normal -0.0 -0.0 1.0
   outer loop
      vertex -2230.2942000000003 1798.3840000000002 640.096
      vertex -2223.0261 1790.1780999999996 640.096
      vertex -2230.2942000000003 1810.384 640.096
   endloop
endfacet
facet normal -0.0 -0.0 1.0
   outer loop
      vertex -2237.5862 1816.1781 640.096
      vertex -2232.812 1812.316 640.096
      vertex -2223.0261 1816.1781 640.096
   endloop
endfacet
facet normal -0.0 -0.0 1.0
   outer loop
      vertex -2232.812 1812.316 640.096
      vertex -2237.5862 1816.1781 640.096
      vertex -2233.2942000000003 1812.1161000000002 640.096
   endloop
endfacet
facet normal -0.0 -0.0 1.0
   outer loop
      vertex -2233.2942000000003 1812.1161000000002 640.096
      vertex -2237.5862 1816.1781 640.096
      vertex -2233.708 1811.7981 640.096
   endloop
endfacet
facet normal -0.0 -0.0 1.0
   outer loop
      vertex -2233.708 1811.7981 640.096
      vertex -2237.5862 1816.1781 640.096
      vertex -2234.0261 1811.3839999999998 640.096
   endloop
endfacet
facet normal -0.0 -0.0 1.0
   outer loop
      vertex -2234.0261 1811.3839999999998 640.096
      vertex -2237.5862 1816.1781 640.096
      vertex -2234.2261000000003 1810.9001 640.096
   endloop
endfacet
facet normal -0.0 -0.0 1.0
   outer loop
      vertex -2234.2261000000003 1810.9001 640.096
      vertex -2237.5862 1816.1781 640.096
      vertex -2234.2942000000003 1810.384 640.096
   endloop
endfacet
facet normal -0.0 -0.0 1.0
   outer loop
      vertex -2223.0261 1816.1781 640.096
      vertex -2232.812 1812.316 640.096
      vertex -2232.2942000000003 1812.384 640.096
   endloop
endfacet
facet normal -0.0 -0.0 1.0
   outer loop
      vertex -2223.0261 1816.1781 640.096
      vertex -2232.2942000000003 1812.384 640.096
      vertex -2231.7761 1812.316 640.096
   endloop
endfacet
facet normal -0.0 -0.0 1.0
   outer loop
      vertex -2223.0261 1816.1781 640.096
      vertex -2231.7761 1812.316 640.096
      vertex -2231.2942000000003 1812.1161000000002 640.096
   endloop
endfacet
facet normal -0.0 -0.0 1.0
   outer loop
      vertex -2223.0261 1816.1781 640.096
      vertex -2231.2942000000003 1812.1161000000002 640.096
      vertex -2230.8801000000003 1811.7981 640.096
   endloop
endfacet
facet normal -0.0 -0.0 1.0
   outer loop
      vertex -2223.0261 1816.1781 640.096
      vertex -2230.8801000000003 1811.7981 640.096
      vertex -2230.562 1811.3839999999998 640.096
   endloop
endfacet
facet normal -0.0 -0.0 1.0
   outer loop
      vertex -2223.0261 1816.1781 640.096
      vertex -2230.562 1811.3839999999998 640.096
      vertex -2230.3621000000003 1810.9001 640.096
   endloop
endfacet
facet normal -0.0 -0.0 1.0
   outer loop
      vertex -2223.0261 1816.1781 640.096
      vertex -2230.3621000000003 1810.9001 640.096
      vertex -2230.2942000000003 1810.384 640.096
   endloop
endfacet
facet normal -0.0 -0.0 1.0
   outer loop
      vertex -2223.0261 1816.1781 640.096
      vertex -2230.2942000000003 1810.384 640.096
      vertex -2223.0261 1790.1780999999996 640.096
   endloop
endfacet
facet normal -0.0 -0.0 1.0
   outer loop
      vertex -2234.2942 1798.3840000000002 640.096
      vertex -2234.2261000000003 1809.8661000000002 640.096
      vertex -2234.2942000000003 1810.384 640.096
   endloop
endfacet
facet normal -0.0 -0.0 1.0
   outer loop
      vertex -2234.2261000000003 1809.8661000000002 640.096
      vertex -2234.2942 1798.3840000000002 640.096
      vertex -2234.226051652578 1798.9016380902053 640.096
   endloop
endfacet
facet normal -0.0 -0.0 1.0
   outer loop
      vertex -2234.2261000000003 1809.8661000000002 640.096
      vertex -2234.226051652578 1798.9016380902053 640.096
      vertex -2234.0261 1809.384 640.096
   endloop
endfacet
facet normal -0.0 -0.0 1.0
   outer loop
      vertex -2234.0261 1809.384 640.096
      vertex -2234.226051652578 1798.9016380902053 640.096
      vertex -2234.026250807569 1799.384 640.096
   endloop
endfacet
facet normal -0.0 -0.0 1.0
   outer loop
      vertex -2234.0261 1809.384 640.096
      vertex -2234.026250807569 1799.384 640.096
      vertex -2233.708413562373 1799.7982135623736 640.096
   endloop
endfacet
facet normal -0.0 -0.0 1.0
   outer loop
      vertex -2234.0261 1809.384 640.096
      vertex -2233.708413562373 1799.7982135623736 640.096
      vertex -2233.708 1808.9681 640.096
   endloop
endfacet
facet normal -0.0 -0.0 1.0
   outer loop
      vertex -2233.708 1808.9681 640.096
      vertex -2233.708413562373 1799.7982135623736 640.096
      vertex -2233.2942000000003 1800.116050807569 640.096
   endloop
endfacet
facet normal -0.0 -0.0 1.0
   outer loop
      vertex -2233.708 1808.9681 640.096
      vertex -2233.2942000000003 1800.116050807569 640.096
      vertex -2233.2942000000003 1808.6521 640.096
   endloop
endfacet
facet normal -0.0 -0.0 1.0
   outer loop
      vertex -2233.2942000000003 1808.6521 640.096
      vertex -2233.2942000000003 1800.116050807569 640.096
      vertex -2232.811838090205 1800.3158516525782 640.096
   endloop
endfacet
facet normal -0.0 -0.0 1.0
   outer loop
      vertex -2233.2942000000003 1808.6521 640.096
      vertex -2232.811838090205 1800.3158516525782 640.096
      vertex -2232.812 1808.452 640.096
   endloop
endfacet
facet normal -0.0 -0.0 1.0
   outer loop
      vertex -2232.812 1808.452 640.096
      vertex -2232.811838090205 1800.3158516525782 640.096
      vertex -2232.2942000000003 1808.3840000000002 640.096
   endloop
endfacet
facet normal -0.0 -0.0 1.0
   outer loop
      vertex -2232.2942000000003 1808.3840000000002 640.096
      vertex -2232.811838090205 1800.3158516525782 640.096
      vertex -2232.2942000000003 1800.3840000000002 640.096
   endloop
endfacet
facet normal -0.0 -0.0 1.0
   outer loop
      vertex -2232.2942000000003 1808.3840000000002 640.096
      vertex -2232.2942000000003 1800.3840000000002 640.096
      vertex -2231.776561909795 1800.3158516525782 640.096
   endloop
endfacet
facet normal -0.0 -0.0 1.0
   outer loop
      vertex -2232.2942000000003 1808.3840000000002 640.096
      vertex -2231.776561909795 1800.3158516525782 640.096
      vertex -2231.7761 1808.452 640.096
   endloop
endfacet
facet normal -0.0 -0.0 1.0
   outer loop
      vertex -2231.7761 1808.452 640.096
      vertex -2231.776561909795 1800.3158516525782 640.096
      vertex -2231.2942000000003 1800.116050807569 640.096
   endloop
endfacet
facet normal -0.0 -0.0 1.0
   outer loop
      vertex -2231.7761 1808.452 640.096
      vertex -2231.2942000000003 1800.116050807569 640.096
      vertex -2231.2942000000003 1808.6521 640.096
   endloop
endfacet
facet normal -0.0 -0.0 1.0
   outer loop
      vertex -2231.2942000000003 1808.6521 640.096
      vertex -2231.2942000000003 1800.116050807569 640.096
      vertex -2230.879986437627 1799.7982135623736 640.096
   endloop
endfacet
facet normal -0.0 -0.0 1.0
   outer loop
      vertex -2231.2942000000003 1808.6521 640.096
      vertex -2230.879986437627 1799.7982135623736 640.096
      vertex -2230.8801000000003 1808.9681 640.096
   endloop
endfacet
facet normal -0.0 -0.0 1.0
   outer loop
      vertex -2230.8801000000003 1808.9681 640.096
      vertex -2230.879986437627 1799.7982135623736 640.096
      vertex -2230.562 1809.384 640.096
   endloop
endfacet
facet normal -0.0 -0.0 1.0
   outer loop
      vertex -2230.562 1809.384 640.096
      vertex -2230.879986437627 1799.7982135623736 640.096
      vertex -2230.562149192431 1799.3840000000005 640.096
   endloop
endfacet
facet normal -0.0 -0.0 1.0
   outer loop
      vertex -2230.562 1809.384 640.096
      vertex -2230.562149192431 1799.3840000000005 640.096
      vertex -2230.362348347422 1798.9016380902053 640.096
   endloop
endfacet
facet normal -0.0 -0.0 1.0
   outer loop
      vertex -2230.562 1809.384 640.096
      vertex -2230.362348347422 1798.9016380902053 640.096
      vertex -2230.3621000000003 1809.8661000000002 640.096
   endloop
endfacet
facet normal -0.0 -0.0 1.0
   outer loop
      vertex -2230.3621000000003 1809.8661000000002 640.096
      vertex -2230.362348347422 1798.9016380902053 640.096
      vertex -2230.2942000000003 1798.3840000000002 640.096
   endloop
endfacet
facet normal -0.0 -0.0 1.0
   outer loop
      vertex -2230.3621000000003 1809.8661000000002 640.096
      vertex -2230.2942000000003 1798.3840000000002 640.096
      vertex -2230.2942000000003 1810.384 640.096
   endloop
endfacet
facet normal 0.8660563531340199 -0.4999463903222041 0.0
   outer loop
      vertex -2247.8954963227106 1810.4281 592.0961505459851
      vertex -2248.5453963227105 1808.8601 596.0961505459851
      vertex -2248.5453963227105 1808.8601 592.0961505459851
   endloop
endfacet
facet normal 0.8660563531340199 -0.4999463903222041 0.0
   outer loop
      vertex -2248.5453963227105 1808.8601 596.0961505459851
      vertex -2247.8954963227106 1810.4281 592.0961505459851
      vertex -2247.8954963227106 1810.4281 596.0961505459851
   endloop
endfacet
facet normal -0.25912405530055416 -0.9658440474344683 0.0
   outer loop
      vertex -2240.5834963227103 1813.4561000000003 596.0961505459851
      vertex -2242.2652963227106 1813.6781 592.0961505459851
      vertex -2240.5834963227103 1813.4561000000003 592.0961505459851
   endloop
endfacet
facet normal -0.25912405530055416 -0.9658440474344683 0.0
   outer loop
      vertex -2242.2652963227106 1813.6781 592.0961505459851
      vertex -2240.5834963227103 1813.4561000000003 596.0961505459851
      vertex -2242.2652963227106 1813.6781 596.0961505459851
   endloop
endfacet
facet normal -0.9658391606722645 0.25914226924972256 0.0
   outer loop
      vertex -2235.9874963227103 1805.4961 596.0961505459851
      vertex -2236.6373963227106 1803.9281 592.0961505459851
      vertex -2236.6373963227106 1803.9281 596.0961505459851
   endloop
endfacet
facet normal -0.9658391606722645 0.25914226924972256 0.0
   outer loop
      vertex -2236.6373963227106 1803.9281 592.0961505459851
      vertex -2235.9874963227103 1805.4961 596.0961505459851
      vertex -2235.9874963227103 1805.4961 592.0961505459851
   endloop
endfacet
facet normal -1.0 0.0 0.0
   outer loop
      vertex -2251.9674963227103 1792.1780999999999 596.0961505459851
      vertex -2251.9674963227103 1790.1781000000003 592.0961505459851
      vertex -2251.9674963227103 1790.1781000000003 596.0961505459851
   endloop
endfacet
facet normal -1.0 0.0 0.0
   outer loop
      vertex -2251.9674963227103 1790.1781000000003 592.0961505459851
      vertex -2251.9674963227103 1792.1780999999999 596.0961505459851
      vertex -2251.9674963227103 1816.1781 592.0961505459851
   endloop
endfacet
facet normal -1.0 0.0 0.0
   outer loop
      vertex -2251.9674963227103 1816.1781 592.0961505459851
      vertex -2251.9674963227103 1792.1780999999999 596.0961505459851
      vertex -2251.9674963227103 1816.1781 596.0961505459851
   endloop
endfacet
facet normal -0.86607428762387 0.49991532114629783 0.0
   outer loop
      vertex -2236.6373963227106 1803.9281 596.0961505459851
      vertex -2237.6693963227103 1802.582 592.0961505459851
      vertex -2237.6693963227103 1802.582 596.0961505459851
   endloop
endfacet
facet normal -0.86607428762387 0.49991532114629783 0.0
   outer loop
      vertex -2237.6693963227103 1802.582 592.0961505459851
      vertex -2236.6373963227106 1803.9281 596.0961505459851
      vertex -2236.6373963227106 1803.9281 592.0961505459851
   endloop
endfacet
facet normal 2.1314939399454102e-14 -2.443970951541479e-14 -1.0
   outer loop
      vertex -2237.5862 1816.1781 636.096
      vertex -2234.2261000000003 1810.9001 636.096
      vertex -2237.5862 1792.1780999999999 636.0960000000003
   endloop
endfacet
facet normal 2.1314939399454102e-14 -2.443970951541479e-14 -1.0
   outer loop
      vertex -2234.2261000000003 1810.9001 636.096
      vertex -2237.5862 1816.1781 636.096
      vertex -2234.0261 1811.3839999999998 636.096
   endloop
endfacet
facet normal 2.1314939399454102e-14 -2.443970951541479e-14 -1.0
   outer loop
      vertex -2234.0261 1811.3839999999998 636.096
      vertex -2237.5862 1816.1781 636.096
      vertex -2233.708 1811.7981 636.096
   endloop
endfacet
facet normal 2.1314939399454102e-14 -2.443970951541479e-14 -1.0
   outer loop
      vertex -2233.708 1811.7981 636.096
      vertex -2237.5862 1816.1781 636.096
      vertex -2233.2942000000003 1812.1161000000002 636.096
   endloop
endfacet
facet normal 2.1314939399454102e-14 -2.443970951541479e-14 -1.0
   outer loop
      vertex -2233.2942000000003 1812.1161000000002 636.096
      vertex -2237.5862 1816.1781 636.096
      vertex -2227.0022 1816.1781 636.096
   endloop
endfacet
facet normal 2.1314939399454102e-14 -2.443970951541479e-14 -1.0
   outer loop
      vertex -2237.5862 1792.1780999999999 636.0960000000003
      vertex -2234.2261000000003 1810.9001 636.096
      vertex -2234.2942000000003 1810.384 636.096
   endloop
endfacet
facet normal 2.1314939399454102e-14 -2.443970951541479e-14 -1.0
   outer loop
      vertex -2233.2942000000003 1812.1161000000002 636.096
      vertex -2227.0022 1816.1781 636.096
      vertex -2232.812 1812.316 636.096
   endloop
endfacet
facet normal 2.1314939399454102e-14 -2.443970951541479e-14 -1.0
   outer loop
      vertex -2232.812 1812.316 636.096
      vertex -2227.0022 1816.1781 636.096
      vertex -2232.2942000000003 1812.384 636.096
   endloop
endfacet
facet normal 2.1314939399454102e-14 -2.443970951541479e-14 -1.0
   outer loop
      vertex -2232.2942000000003 1812.384 636.096
      vertex -2227.0022 1816.1781 636.096
      vertex -2231.7761 1812.316 636.096
   endloop
endfacet
facet normal 2.1314939399454102e-14 -2.443970951541479e-14 -1.0
   outer loop
      vertex -2231.7761 1812.316 636.096
      vertex -2227.0022 1816.1781 636.096
      vertex -2231.2942000000003 1812.1161000000002 636.096
   endloop
endfacet
facet normal 2.1314939399454102e-14 -2.443970951541479e-14 -1.0
   outer loop
      vertex -2231.2942000000003 1812.1161000000002 636.096
      vertex -2227.0022 1816.1781 636.096
      vertex -2230.8801000000003 1811.7981 636.096
   endloop
endfacet
facet normal 2.1314939399454102e-14 -2.443970951541479e-14 -1.0
   outer loop
      vertex -2230.8801000000003 1811.7981 636.096
      vertex -2227.0022 1816.1781 636.096
      vertex -2230.562 1811.3839999999998 636.096
   endloop
endfacet
facet normal 2.1314939399454102e-14 -2.443970951541479e-14 -1.0
   outer loop
      vertex -2230.562 1811.3839999999998 636.096
      vertex -2227.0022 1816.1781 636.096
      vertex -2230.3621000000003 1810.9001 636.096
   endloop
endfacet
facet normal 2.1314939399454102e-14 -2.443970951541479e-14 -1.0
   outer loop
      vertex -2230.3621000000003 1810.9001 636.096
      vertex -2227.0022 1816.1781 636.096
      vertex -2230.2942000000003 1810.384 636.096
   endloop
endfacet
facet normal 2.1314939399454102e-14 -2.443970951541479e-14 -1.0
   outer loop
      vertex -2230.2942000000003 1810.384 636.096
      vertex -2227.0022 1816.1781 636.096
      vertex -2230.2942000000003 1798.3840000000002 636.0960000000003
   endloop
endfacet
facet normal 2.1314939399454102e-14 -2.443970951541479e-14 -1.0
   outer loop
      vertex -2237.5862 1792.1780999999999 636.0960000000003
      vertex -2233.2942 1796.6519491924314 636.0960000000003
      vertex -2227.0022 1792.1780999999999 636.0960000000008
   endloop
endfacet
facet normal 2.1314939399454102e-14 -2.443970951541479e-14 -1.0
   outer loop
      vertex -2233.2942 1796.6519491924314 636.0960000000003
      vertex -2237.5862 1792.1780999999999 636.0960000000003
      vertex -2233.708413562373 1796.9697864376271 636.0960000000003
   endloop
endfacet
facet normal 2.1314939399454102e-14 -2.443970951541479e-14 -1.0
   outer loop
      vertex -2233.708413562373 1796.9697864376271 636.0960000000003
      vertex -2237.5862 1792.1780999999999 636.0960000000003
      vertex -2234.026250807569 1797.3840000000002 636.0960000000003
   endloop
endfacet
facet normal 2.1314939399454102e-14 -2.443970951541479e-14 -1.0
   outer loop
      vertex -2234.026250807569 1797.3840000000002 636.0960000000003
      vertex -2237.5862 1792.1780999999999 636.0960000000003
      vertex -2234.226051652578 1797.8663619097952 636.0960000000003
   endloop
endfacet
facet normal 2.1314939399454102e-14 -2.443970951541479e-14 -1.0
   outer loop
      vertex -2234.226051652578 1797.8663619097952 636.0960000000003
      vertex -2237.5862 1792.1780999999999 636.0960000000003
      vertex -2234.2942 1798.3840000000002 636.0960000000003
   endloop
endfacet
facet normal 2.1314939399454102e-14 -2.443970951541479e-14 -1.0
   outer loop
      vertex -2234.2942 1798.3840000000002 636.0960000000003
      vertex -2237.5862 1792.1780999999999 636.0960000000003
      vertex -2234.2942000000003 1810.384 636.096
   endloop
endfacet
facet normal 2.1314939399454102e-14 -2.443970951541479e-14 -1.0
   outer loop
      vertex -2227.0022 1792.1780999999999 636.0960000000008
      vertex -2233.2942 1796.6519491924314 636.0960000000003
      vertex -2232.811838090205 1796.4521483474223 636.0960000000003
   endloop
endfacet
facet normal 2.1314939399454102e-14 -2.443970951541479e-14 -1.0
   outer loop
      vertex -2227.0022 1792.1780999999999 636.0960000000008
      vertex -2232.811838090205 1796.4521483474223 636.0960000000003
      vertex -2232.2942000000003 1796.3840000000005 636.0960000000003
   endloop
endfacet
facet normal 2.1314939399454102e-14 -2.443970951541479e-14 -1.0
   outer loop
      vertex -2227.0022 1792.1780999999999 636.0960000000008
      vertex -2232.2942000000003 1796.3840000000005 636.0960000000003
      vertex -2231.776561909795 1796.4521483474223 636.0960000000003
   endloop
endfacet
facet normal 2.1314939399454102e-14 -2.443970951541479e-14 -1.0
   outer loop
      vertex -2227.0022 1792.1780999999999 636.0960000000008
      vertex -2231.776561909795 1796.4521483474223 636.0960000000003
      vertex -2231.2942 1796.6519491924314 636.0960000000003
   endloop
endfacet
facet normal 2.1314939399454102e-14 -2.443970951541479e-14 -1.0
   outer loop
      vertex -2227.0022 1792.1780999999999 636.0960000000008
      vertex -2231.2942 1796.6519491924314 636.0960000000003
      vertex -2230.879986437627 1796.9697864376271 636.0960000000003
   endloop
endfacet
facet normal 2.1314939399454102e-14 -2.443970951541479e-14 -1.0
   outer loop
      vertex -2227.0022 1792.1780999999999 636.0960000000008
      vertex -2230.879986437627 1796.9697864376271 636.0960000000003
      vertex -2230.562149192431 1797.3840000000005 636.0960000000003
   endloop
endfacet
facet normal 2.1314939399454102e-14 -2.443970951541479e-14 -1.0
   outer loop
      vertex -2227.0022 1792.1780999999999 636.0960000000008
      vertex -2230.562149192431 1797.3840000000005 636.0960000000003
      vertex -2230.362348347422 1797.8663619097952 636.0960000000003
   endloop
endfacet
facet normal 2.1314939399454102e-14 -2.443970951541479e-14 -1.0
   outer loop
      vertex -2227.0022 1792.1780999999999 636.0960000000008
      vertex -2230.362348347422 1797.8663619097952 636.0960000000003
      vertex -2230.2942000000003 1798.3840000000002 636.0960000000003
   endloop
endfacet
facet normal 2.1314939399454102e-14 -2.443970951541479e-14 -1.0
   outer loop
      vertex -2227.0022 1792.1780999999999 636.0960000000008
      vertex -2230.2942000000003 1798.3840000000002 636.0960000000003
      vertex -2227.0022 1816.1781 636.096
   endloop
endfacet
facet normal 2.1314939399454102e-14 -2.443970951541479e-14 -1.0
   outer loop
      vertex -2234.2261000000003 1809.8661000000002 636.096
      vertex -2234.2942 1798.3840000000002 636.0960000000003
      vertex -2234.2942000000003 1810.384 636.096
   endloop
endfacet
facet normal 2.1314939399454102e-14 -2.443970951541479e-14 -1.0
   outer loop
      vertex -2234.2942 1798.3840000000002 636.0960000000003
      vertex -2234.2261000000003 1809.8661000000002 636.096
      vertex -2234.226051652578 1798.9016380902053 636.0960000000003
   endloop
endfacet
facet normal 2.1314939399454102e-14 -2.443970951541479e-14 -1.0
   outer loop
      vertex -2234.226051652578 1798.9016380902053 636.0960000000003
      vertex -2234.2261000000003 1809.8661000000002 636.096
      vertex -2234.0261 1809.384 636.096
   endloop
endfacet
facet normal 2.1314939399454102e-14 -2.443970951541479e-14 -1.0
   outer loop
      vertex -2234.226051652578 1798.9016380902053 636.0960000000003
      vertex -2234.0261 1809.384 636.096
      vertex -2234.026250807569 1799.384 636.0960000000003
   endloop
endfacet
facet normal 2.1314939399454102e-14 -2.443970951541479e-14 -1.0
   outer loop
      vertex -2234.026250807569 1799.384 636.0960000000003
      vertex -2234.0261 1809.384 636.096
      vertex -2233.708413562373 1799.7982135623736 636.0960000000003
   endloop
endfacet
facet normal 2.1314939399454102e-14 -2.443970951541479e-14 -1.0
   outer loop
      vertex -2233.708413562373 1799.7982135623736 636.0960000000003
      vertex -2234.0261 1809.384 636.096
      vertex -2233.708 1808.9681 636.096
   endloop
endfacet
facet normal 2.1314939399454102e-14 -2.443970951541479e-14 -1.0
   outer loop
      vertex -2233.708413562373 1799.7982135623736 636.0960000000003
      vertex -2233.708 1808.9681 636.096
      vertex -2233.2942000000003 1800.116050807569 636.0960000000003
   endloop
endfacet
facet normal 2.1314939399454102e-14 -2.443970951541479e-14 -1.0
   outer loop
      vertex -2233.2942000000003 1800.116050807569 636.0960000000003
      vertex -2233.708 1808.9681 636.096
      vertex -2233.2942000000003 1808.6521 636.096
   endloop
endfacet
facet normal 2.1314939399454102e-14 -2.443970951541479e-14 -1.0
   outer loop
      vertex -2233.2942000000003 1800.116050807569 636.0960000000003
      vertex -2233.2942000000003 1808.6521 636.096
      vertex -2232.812 1808.452 636.096
   endloop
endfacet
facet normal 2.1314939399454102e-14 -2.443970951541479e-14 -1.0
   outer loop
      vertex -2233.2942000000003 1800.116050807569 636.0960000000003
      vertex -2232.812 1808.452 636.096
      vertex -2232.811838090205 1800.3158516525782 636.0960000000003
   endloop
endfacet
facet normal 2.1314939399454102e-14 -2.443970951541479e-14 -1.0
   outer loop
      vertex -2232.811838090205 1800.3158516525782 636.0960000000003
      vertex -2232.812 1808.452 636.096
      vertex -2232.2942000000003 1808.3840000000002 636.096
   endloop
endfacet
facet normal 2.1314939399454102e-14 -2.443970951541479e-14 -1.0
   outer loop
      vertex -2232.811838090205 1800.3158516525782 636.0960000000003
      vertex -2232.2942000000003 1808.3840000000002 636.096
      vertex -2232.2942000000003 1800.3840000000002 636.0960000000003
   endloop
endfacet
facet normal 2.1314939399454102e-14 -2.443970951541479e-14 -1.0
   outer loop
      vertex -2232.2942000000003 1800.3840000000002 636.0960000000003
      vertex -2232.2942000000003 1808.3840000000002 636.096
      vertex -2231.7761 1808.452 636.096
   endloop
endfacet
facet normal 2.1314939399454102e-14 -2.443970951541479e-14 -1.0
   outer loop
      vertex -2232.2942000000003 1800.3840000000002 636.0960000000003
      vertex -2231.7761 1808.452 636.096
      vertex -2231.776561909795 1800.3158516525782 636.0960000000003
   endloop
endfacet
facet normal 2.1314939399454102e-14 -2.443970951541479e-14 -1.0
   outer loop
      vertex -2231.776561909795 1800.3158516525782 636.0960000000003
      vertex -2231.7761 1808.452 636.096
      vertex -2231.2942000000003 1800.116050807569 636.0960000000003
   endloop
endfacet
facet normal 2.1314939399454102e-14 -2.443970951541479e-14 -1.0
   outer loop
      vertex -2231.2942000000003 1800.116050807569 636.0960000000003
      vertex -2231.7761 1808.452 636.096
      vertex -2231.2942000000003 1808.6521 636.096
   endloop
endfacet
facet normal 2.1314939399454102e-14 -2.443970951541479e-14 -1.0
   outer loop
      vertex -2231.2942000000003 1800.116050807569 636.0960000000003
      vertex -2231.2942000000003 1808.6521 636.096
      vertex -2230.8801000000003 1808.9681 636.096
   endloop
endfacet
facet normal 2.1314939399454102e-14 -2.443970951541479e-14 -1.0
   outer loop
      vertex -2231.2942000000003 1800.116050807569 636.0960000000003
      vertex -2230.8801000000003 1808.9681 636.096
      vertex -2230.879986437627 1799.7982135623736 636.0960000000003
   endloop
endfacet
facet normal 2.1314939399454102e-14 -2.443970951541479e-14 -1.0
   outer loop
      vertex -2230.879986437627 1799.7982135623736 636.0960000000003
      vertex -2230.8801000000003 1808.9681 636.096
      vertex -2230.562 1809.384 636.096
   endloop
endfacet
facet normal 2.1314939399454102e-14 -2.443970951541479e-14 -1.0
   outer loop
      vertex -2230.879986437627 1799.7982135623736 636.0960000000003
      vertex -2230.562 1809.384 636.096
      vertex -2230.562149192431 1799.3840000000005 636.0960000000003
   endloop
endfacet
facet normal 2.1314939399454102e-14 -2.443970951541479e-14 -1.0
   outer loop
      vertex -2230.562149192431 1799.3840000000005 636.0960000000003
      vertex -2230.562 1809.384 636.096
      vertex -2230.362348347422 1798.9016380902053 636.0960000000003
   endloop
endfacet
facet normal 2.1314939399454102e-14 -2.443970951541479e-14 -1.0
   outer loop
      vertex -2230.362348347422 1798.9016380902053 636.0960000000003
      vertex -2230.562 1809.384 636.096
      vertex -2230.3621000000003 1809.8661000000002 636.096
   endloop
endfacet
facet normal 2.1314939399454102e-14 -2.443970951541479e-14 -1.0
   outer loop
      vertex -2230.362348347422 1798.9016380902053 636.0960000000003
      vertex -2230.3621000000003 1809.8661000000002 636.096
      vertex -2230.2942000000003 1798.3840000000002 636.0960000000003
   endloop
endfacet
facet normal 2.1314939399454102e-14 -2.443970951541479e-14 -1.0
   outer loop
      vertex -2230.2942000000003 1798.3840000000002 636.0960000000003
      vertex -2230.3621000000003 1809.8661000000002 636.096
      vertex -2230.2942000000003 1810.384 636.096
   endloop
endfacet
facet normal 0.9660131124471217 -0.2584930687276249 0.0
   outer loop
      vertex -2248.5453963227105 1808.8601 592.0961505459851
      vertex -2248.7652963227106 1807.1781 596.0961505459851
      vertex -2248.7652963227106 1807.1781 592.0961505459851
   endloop
endfacet
facet normal 0.9660131124471217 -0.2584930687276249 0.0
   outer loop
      vertex -2248.7652963227106 1807.1781 596.0961505459851
      vertex -2248.5453963227105 1808.8601 592.0961505459851
      vertex -2248.5453963227105 1808.8601 596.0961505459851
   endloop
endfacet
facet normal 0.25885471977007135 0.9659162665521186 7.92305342875076e-06
   outer loop
      vertex -2243.9493963227105 1800.9001 596.0961505459851
      vertex -2242.6092963227106 1800.722 592.0961505459851
      vertex -2243.9493963227105 1800.9001 592.0961505459851
   endloop
endfacet
facet normal 0.25885471977007135 0.9659162665521186 7.92305342875076e-06
   outer loop
      vertex -2242.6092963227106 1800.722 592.0961505459851
      vertex -2243.9493963227105 1800.9001 596.0961505459851
      vertex -2242.6092963227106 1800.722 593.0961505459851
   endloop
endfacet
facet normal 0.25885471977007135 0.9659162665521186 7.92305342875076e-06
   outer loop
      vertex -2243.9493963227105 1800.9001 596.0961505459851
      vertex -2242.2652963227106 1800.6781 593.0961505459851
      vertex -2242.6092963227106 1800.722 593.0961505459851
   endloop
endfacet
facet normal 0.25885471977007135 0.9659162665521186 7.92305342875076e-06
   outer loop
      vertex -2243.9493963227105 1800.9001 596.0961505459851
      vertex -2242.2652963227106 1800.6781 596.0961505459851
      vertex -2242.2652963227106 1800.6781 593.0961505459851
   endloop
endfacet
facet normal 0.25885471977007135 0.9659162665521186 7.92305342875076e-06
   outer loop
      vertex -2242.2652963227106 1800.6781 596.0961505459851
      vertex -2243.9493963227105 1800.9001 596.0961505459851
      vertex -2242.6092963227106 1800.722 596.0961505459851
   endloop
endfacet
facet normal -0.04490255803290713 0.9989912446251884 -0.0005034325361280242
   outer loop
      vertex -2242.2652963227106 1800.6781 593.0961505459851
      vertex -2240.5834963227103 1800.9001 592.0961505459851
      vertex -2242.2652963227106 1800.6781 592.0961505459851
   endloop
endfacet
facet normal -0.04490255803290713 0.9989912446251884 -0.0005034325361280242
   outer loop
      vertex -2240.5834963227103 1800.9001 592.0961505459851
      vertex -2242.2652963227106 1800.6781 593.0961505459851
      vertex -2240.5834963227103 1800.9001 596.0961505459851
   endloop
endfacet
facet normal -0.04490255803290713 0.9989912446251884 -0.0005034325361280242
   outer loop
      vertex -2240.5834963227103 1800.9001 596.0961505459851
      vertex -2242.2652963227106 1800.6781 593.0961505459851
      vertex -2242.2652963227106 1800.6781 596.0961505459851
   endloop
endfacet
facet normal 0.4997309312536649 0.8661806949755605 0.0
   outer loop
      vertex -2245.5152963227106 1801.5481 596.0961505459851
      vertex -2243.9493963227105 1800.9001 592.0961505459851
      vertex -2245.5152963227106 1801.5481 592.0961505459851
   endloop
endfacet
facet normal 0.4997309312536649 0.8661806949755605 0.0
   outer loop
      vertex -2243.9493963227105 1800.9001 592.0961505459851
      vertex -2245.5152963227106 1801.5481 596.0961505459851
      vertex -2243.9493963227105 1800.9001 596.0961505459851
   endloop
endfacet
facet normal 0.7071546745813267 0.7070588845476576 0.0
   outer loop
      vertex -2246.8634963227105 1802.582 596.0961505459851
      vertex -2245.5152963227106 1801.5481 592.0961505459851
      vertex -2246.8634963227105 1802.582 592.0961505459851
   endloop
endfacet
facet normal 0.7071546745813267 0.7070588845476576 0.0
   outer loop
      vertex -2245.5152963227106 1801.5481 592.0961505459851
      vertex -2246.8634963227105 1802.582 596.0961505459851
      vertex -2245.5152963227106 1801.5481 596.0961505459851
   endloop
endfacet
facet normal -0.7071067811865476 -0.7071067811865476 0.0
   outer loop
      vertex -2237.6693963227103 1811.7740000000001 596.0961505459851
      vertex -2239.0152963227106 1812.806 592.0961505459851
      vertex -2237.6693963227103 1811.7740000000001 592.0961505459851
   endloop
endfacet
facet normal -0.7071067811865476 -0.7071067811865476 0.0
   outer loop
      vertex -2239.0152963227106 1812.806 592.0961505459851
      vertex -2237.6693963227103 1811.7740000000001 596.0961505459851
      vertex -2239.0152963227106 1812.806 596.0961505459851
   endloop
endfacet
facet normal 0.4998419934902174 -0.8661166096685396 0.0
   outer loop
      vertex -2245.5152963227106 1812.806 596.0961505459851
      vertex -2246.8634963227105 1811.7740000000001 592.0961505459851
      vertex -2245.5152963227106 1812.806 592.0961505459851
   endloop
endfacet
facet normal 0.4998419934902174 -0.8661166096685396 0.0
   outer loop
      vertex -2246.8634963227105 1811.7740000000001 592.0961505459851
      vertex -2245.5152963227106 1812.806 596.0961505459851
      vertex -2246.8634963227105 1811.7740000000001 596.0961505459851
   endloop
endfacet
facet normal 0.4992776149878886 0.8664420714462139 0.0
   outer loop
      vertex -2233.2942000000003 1808.6521 640.096
      vertex -2232.812 1808.452 636.096
      vertex -2233.2942000000003 1808.6521 636.096
   endloop
endfacet
facet normal 0.4992776149878886 0.8664420714462139 0.0
   outer loop
      vertex -2232.812 1808.452 636.096
      vertex -2233.2942000000003 1808.6521 640.096
      vertex -2232.812 1808.452 640.096
   endloop
endfacet
facet normal 0.86607428762387 0.49991532114629783 0.0
   outer loop
      vertex -2247.8954963227106 1803.9281 592.0961505459851
      vertex -2246.8634963227105 1802.582 596.0961505459851
      vertex -2246.8634963227105 1802.582 592.0961505459851
   endloop
endfacet
facet normal 0.86607428762387 0.49991532114629783 0.0
   outer loop
      vertex -2246.8634963227105 1802.582 596.0961505459851
      vertex -2247.8954963227106 1803.9281 592.0961505459851
      vertex -2247.8954963227106 1803.9281 596.0961505459851
   endloop
endfacet
facet normal -0.25857190088892557 0.9659920144963351 0.0
   outer loop
      vertex -2240.5834963227103 1800.9001 596.0961505459851
      vertex -2239.0152963227106 1801.5481 592.0961505459851
      vertex -2240.5834963227103 1800.9001 592.0961505459851
   endloop
endfacet
facet normal -0.25857190088892557 0.9659920144963351 0.0
   outer loop
      vertex -2239.0152963227106 1801.5481 592.0961505459851
      vertex -2240.5834963227103 1800.9001 596.0961505459851
      vertex -2239.0152963227106 1801.5481 596.0961505459851
   endloop
endfacet
facet normal 0.8662798025212411 0.4995591093592025 0.0
   outer loop
      vertex -2234.0261 1809.384 636.096
      vertex -2233.708 1808.9681 640.096
      vertex -2233.708 1808.9681 636.096
   endloop
endfacet
facet normal 0.8662798025212411 0.4995591093592025 0.0
   outer loop
      vertex -2233.708 1808.9681 640.096
      vertex -2234.0261 1809.384 636.096
      vertex -2234.0261 1809.384 640.096
   endloop
endfacet
facet normal 3.7376851497603176e-05 -0.9999999993014855 0.0
   outer loop
      vertex -2232.2942000000003 1812.384 640.096
      vertex -2232.812 1812.316 636.096
      vertex -2232.2942000000003 1812.384 636.096
   endloop
endfacet
facet normal 3.7376851497603176e-05 -0.9999999993014855 0.0
   outer loop
      vertex -2232.812 1812.316 636.096
      vertex -2232.2942000000003 1812.384 640.096
      vertex -2232.812 1812.316 640.096
   endloop
endfacet
facet normal -0.7070530785340557 -0.7071604797607925 0.0
   outer loop
      vertex -2230.8801000000003 1811.7981 640.096
      vertex -2231.2942000000003 1812.1161000000002 636.096
      vertex -2230.8801000000003 1811.7981 636.096
   endloop
endfacet
facet normal -0.7070530785340557 -0.7071604797607925 0.0
   outer loop
      vertex -2231.2942000000003 1812.1161000000002 636.096
      vertex -2230.8801000000003 1811.7981 640.096
      vertex -2231.2942000000003 1812.1161000000002 640.096
   endloop
endfacet
facet normal -0.9999999999999999 0.0 0.0
   outer loop
      vertex -2235.7652963227106 1807.1781 596.0961505459851
      vertex -2235.9874963227103 1805.4961 592.0961505459851
      vertex -2235.9874963227103 1805.4961 596.0961505459851
   endloop
endfacet
facet normal -0.9999999999999999 0.0 0.0
   outer loop
      vertex -2235.9874963227103 1805.4961 592.0961505459851
      vertex -2235.7652963227106 1807.1781 596.0961505459851
      vertex -2235.7652963227106 1807.1781 592.0961505459851
   endloop
endfacet
facet normal 0.500443351878277 -0.8657692831007779 0.0
   outer loop
      vertex -2233.2942000000003 1812.1161000000002 640.096
      vertex -2233.708 1811.7981 636.096
      vertex -2233.2942000000003 1812.1161000000002 636.096
   endloop
endfacet
facet normal 0.500443351878277 -0.8657692831007779 0.0
   outer loop
      vertex -2233.708 1811.7981 636.096
      vertex -2233.2942000000003 1812.1161000000002 640.096
      vertex -2233.708 1811.7981 640.096
   endloop
endfacet
facet normal 0.7068403784396856 0.707373083603866 0.0
   outer loop
      vertex -2233.708 1808.9681 640.096
      vertex -2233.2942000000003 1808.6521 636.096
      vertex -2233.708 1808.9681 636.096
   endloop
endfacet
facet normal 0.7068403784396856 0.707373083603866 0.0
   outer loop
      vertex -2233.2942000000003 1808.6521 636.096
      vertex -2233.708 1808.9681 640.096
      vertex -2233.2942000000003 1808.6521 640.096
   endloop
endfacet
facet normal 0.8660856807685805 -0.49989558266464473 0.0
   outer loop
      vertex -2234.0261 1811.3839999999998 636.096
      vertex -2234.2261000000003 1810.9001 640.096
      vertex -2234.2261000000003 1810.9001 636.096
   endloop
endfacet
facet normal 0.8660856807685805 -0.49989558266464473 0.0
   outer loop
      vertex -2234.2261000000003 1810.9001 640.096
      vertex -2234.0261 1811.3839999999998 636.096
      vertex -2234.0261 1811.3839999999998 640.096
   endloop
endfacet
facet normal -0.4998636168817499 0.866104130297215 0.0
   outer loop
      vertex -2239.0152963227106 1801.5481 596.0961505459851
      vertex -2237.6693963227103 1802.582 592.0961505459851
      vertex -2239.0152963227106 1801.5481 592.0961505459851
   endloop
endfacet
facet normal -0.4998636168817499 0.866104130297215 0.0
   outer loop
      vertex -2237.6693963227103 1802.582 592.0961505459851
      vertex -2239.0152963227106 1801.5481 596.0961505459851
      vertex -2237.6693963227103 1802.582 596.0961505459851
   endloop
endfacet
facet normal -0.9658391606722645 -0.25914226924972256 0.0
   outer loop
      vertex -2235.9874963227103 1808.8601 596.0961505459851
      vertex -2235.7652963227106 1807.1781 592.0961505459851
      vertex -2235.7652963227106 1807.1781 596.0961505459851
   endloop
endfacet
facet normal -0.9658391606722645 -0.25914226924972256 0.0
   outer loop
      vertex -2235.7652963227106 1807.1781 592.0961505459851
      vertex -2235.9874963227103 1808.8601 596.0961505459851
      vertex -2235.9874963227103 1808.8601 592.0961505459851
   endloop
endfacet
facet normal -0.9660598407787913 -0.25831837726816176 0.0
   outer loop
      vertex -2230.3621000000003 1810.9001 640.096
      vertex -2230.2942000000003 1810.384 636.096
      vertex -2230.2942000000003 1810.384 640.096
   endloop
endfacet
facet normal -0.9660598407787913 -0.25831837726816176 0.0
   outer loop
      vertex -2230.2942000000003 1810.384 636.096
      vertex -2230.3621000000003 1810.9001 640.096
      vertex -2230.3621000000003 1810.9001 636.096
   endloop
endfacet
facet normal 0.9999965699782448 4.579077290412995e-18 0.0026191662309533238
   outer loop
      vertex -2222.9913963227104 1816.1781 608.3461505459851
      vertex -2223.0261 1790.1780999999999 621.5960000000001
      vertex -2222.9913963227104 1790.1780999999999 608.3461505459851
   endloop
endfacet
facet normal 0.9999965699782448 4.579077290412995e-18 0.0026191662309533238
   outer loop
      vertex -2223.0261 1790.1780999999999 621.5960000000001
      vertex -2222.9913963227104 1816.1781 608.3461505459851
      vertex -2223.0261 1816.1781 621.596
   endloop
endfacet
facet normal 1.0 0.0 0.0
   outer loop
      vertex -2222.9913963227104 1816.1781 592.0961505459851
      vertex -2222.9913963227104 1790.1780999999999 608.3461505459851
      vertex -2222.9913963227104 1790.1780999999999 592.0961505459851
   endloop
endfacet
facet normal 1.0 0.0 0.0
   outer loop
      vertex -2222.9913963227104 1790.1780999999999 608.3461505459851
      vertex -2222.9913963227104 1816.1781 592.0961505459851
      vertex -2222.9913963227104 1816.1781 608.3461505459851
   endloop
endfacet
facet normal 0.9659878066502957 -0.2585876203590396 0.0
   outer loop
      vertex -2234.2261000000003 1810.9001 636.096
      vertex -2234.2942000000003 1810.384 640.096
      vertex -2234.2942000000003 1810.384 636.096
   endloop
endfacet
facet normal 0.9659878066502957 -0.2585876203590396 0.0
   outer loop
      vertex -2234.2942000000003 1810.384 640.096
      vertex -2234.2261000000003 1810.9001 636.096
      vertex -2234.2261000000003 1810.9001 640.096
   endloop
endfacet
facet normal 0.7071768629479697 -0.7070366924785931 0.0
   outer loop
      vertex -2233.708 1811.7981 636.096
      vertex -2234.0261 1811.3839999999998 640.096
      vertex -2234.0261 1811.3839999999998 636.096
   endloop
endfacet
facet normal 0.7071768629479697 -0.7070366924785931 0.0
   outer loop
      vertex -2234.0261 1811.3839999999998 640.096
      vertex -2233.708 1811.7981 636.096
      vertex -2233.708 1811.7981 640.096
   endloop
endfacet
facet normal 1.0 -0.0 -0.0
   outer loop
      vertex -2223.0261 1790.1780999999999 621.5960000000001
      vertex -2223.0261 1816.1781 640.096
      vertex -2223.0261 1790.1780999999996 640.096
   endloop
endfacet
facet normal 1.0 -0.0 -0.0
   outer loop
      vertex -2223.0261 1816.1781 640.096
      vertex -2223.0261 1790.1780999999999 621.5960000000001
      vertex -2223.0261 1816.1781 621.596
   endloop
endfacet
facet normal -0.7070530785340557 -0.7071604797607925 0.0
   outer loop
      vertex -2230.8801000000003 1811.7981 640.096
      vertex -2230.562 1811.3839999999998 636.096
      vertex -2230.562 1811.3839999999998 640.096
   endloop
endfacet
facet normal -0.7070530785340557 -0.7071604797607925 0.0
   outer loop
      vertex -2230.562 1811.3839999999998 636.096
      vertex -2230.8801000000003 1811.7981 640.096
      vertex -2230.8801000000003 1811.7981 636.096
   endloop
endfacet
facet normal 0.9660131124471217 0.2584930687276249 0.0
   outer loop
      vertex -2248.5453963227105 1805.4961 592.0961505459851
      vertex -2247.8954963227106 1803.9281 596.0961505459851
      vertex -2247.8954963227106 1803.9281 592.0961505459851
   endloop
endfacet
facet normal 0.9660131124471217 0.2584930687276249 0.0
   outer loop
      vertex -2247.8954963227106 1803.9281 596.0961505459851
      vertex -2248.5453963227105 1805.4961 592.0961505459851
      vertex -2248.5453963227105 1805.4961 596.0961505459851
   endloop
endfacet
facet normal -0.8661297972186487 -0.49981914166024366 0.0
   outer loop
      vertex -2230.562 1811.3839999999998 640.096
      vertex -2230.3621000000003 1810.9001 636.096
      vertex -2230.3621000000003 1810.9001 640.096
   endloop
endfacet
facet normal -0.8661297972186487 -0.49981914166024366 0.0
   outer loop
      vertex -2230.3621000000003 1810.9001 636.096
      vertex -2230.562 1811.3839999999998 640.096
      vertex -2230.562 1811.3839999999998 636.096
   endloop
endfacet
facet normal -0.4992216507621063 0.8664743178019516 0.0
   outer loop
      vertex -2231.2942000000003 1808.6521 640.096
      vertex -2230.8801000000003 1808.9681 636.096
      vertex -2231.2942000000003 1808.6521 636.096
   endloop
endfacet
facet normal -0.4992216507621063 0.8664743178019516 0.0
   outer loop
      vertex -2230.8801000000003 1808.9681 636.096
      vertex -2231.2942000000003 1808.6521 640.096
      vertex -2230.8801000000003 1808.9681 640.096
   endloop
endfacet
facet normal 0.25897648168245513 0.9658836275325186 0.0
   outer loop
      vertex -2232.812 1808.452 640.096
      vertex -2232.2942000000003 1808.3840000000002 636.096
      vertex -2232.812 1808.452 636.096
   endloop
endfacet
facet normal 0.25897648168245513 0.9658836275325186 0.0
   outer loop
      vertex -2232.2942000000003 1808.3840000000002 636.096
      vertex -2232.812 1808.452 640.096
      vertex -2232.2942000000003 1808.3840000000002 640.096
   endloop
endfacet
facet normal 1.0 0.0 0.0
   outer loop
      vertex -2248.7652963227106 1807.1781 592.0961505459851
      vertex -2248.5453963227105 1805.4961 596.0961505459851
      vertex -2248.5453963227105 1805.4961 592.0961505459851
   endloop
endfacet
facet normal 1.0 0.0 0.0
   outer loop
      vertex -2248.5453963227105 1805.4961 596.0961505459851
      vertex -2248.7652963227106 1807.1781 592.0961505459851
      vertex -2248.7652963227106 1807.1781 596.0961505459851
   endloop
endfacet
facet normal -1.8047785488306478e-15 1.8799776550319065e-15 1.0
   outer loop
      vertex -2251.9674963227103 1792.1780999999999 596.0961505459851
      vertex -2248.5453963227105 1805.4961 596.0961505459851
      vertex -2251.9674963227103 1816.1781 596.0961505459851
   endloop
endfacet
facet normal -1.8047785488306478e-15 1.8799776550319065e-15 1.0
   outer loop
      vertex -2248.5453963227105 1805.4961 596.0961505459851
      vertex -2251.9674963227103 1792.1780999999999 596.0961505459851
      vertex -2247.8954963227106 1803.9281 596.0961505459851
   endloop
endfacet
facet normal -1.8047785488306478e-15 1.8799776550319065e-15 1.0
   outer loop
      vertex -2247.8954963227106 1803.9281 596.0961505459851
      vertex -2251.9674963227103 1792.1780999999999 596.0961505459851
      vertex -2246.8634963227105 1802.582 596.0961505459851
   endloop
endfacet
facet normal -1.8047785488306478e-15 1.8799776550319065e-15 1.0
   outer loop
      vertex -2246.8634963227105 1802.582 596.0961505459851
      vertex -2251.9674963227103 1792.1780999999999 596.0961505459851
      vertex -2245.5152963227106 1801.5481 596.0961505459851
   endloop
endfacet
facet normal -1.8047785488306478e-15 1.8799776550319065e-15 1.0
   outer loop
      vertex -2245.5152963227106 1801.5481 596.0961505459851
      vertex -2251.9674963227103 1792.1780999999999 596.0961505459851
      vertex -2226.9674963227103 1792.1780999999999 596.0961505459852
   endloop
endfacet
facet normal -1.8047785488306478e-15 1.8799776550319065e-15 1.0
   outer loop
      vertex -2251.9674963227103 1816.1781 596.0961505459851
      vertex -2248.5453963227105 1805.4961 596.0961505459851
      vertex -2248.7652963227106 1807.1781 596.0961505459851
   endloop
endfacet
facet normal -1.8047785488306478e-15 1.8799776550319065e-15 1.0
   outer loop
      vertex -2245.5152963227106 1801.5481 596.0961505459851
      vertex -2226.9674963227103 1792.1780999999999 596.0961505459852
      vertex -2243.9493963227105 1800.9001 596.0961505459851
   endloop
endfacet
facet normal -1.8047785488306478e-15 1.8799776550319065e-15 1.0
   outer loop
      vertex -2243.9493963227105 1800.9001 596.0961505459851
      vertex -2226.9674963227103 1792.1780999999999 596.0961505459852
      vertex -2242.6092963227106 1800.722 596.0961505459851
   endloop
endfacet
facet normal -1.8047785488306478e-15 1.8799776550319065e-15 1.0
   outer loop
      vertex -2242.6092963227106 1800.722 596.0961505459851
      vertex -2226.9674963227103 1792.1780999999999 596.0961505459852
      vertex -2242.2652963227106 1800.6781 596.0961505459851
   endloop
endfacet
facet normal -1.8047785488306478e-15 1.8799776550319065e-15 1.0
   outer loop
      vertex -2242.2652963227106 1800.6781 596.0961505459851
      vertex -2226.9674963227103 1792.1780999999999 596.0961505459852
      vertex -2240.5834963227103 1800.9001 596.0961505459851
   endloop
endfacet
facet normal -1.8047785488306478e-15 1.8799776550319065e-15 1.0
   outer loop
      vertex -2240.5834963227103 1800.9001 596.0961505459851
      vertex -2226.9674963227103 1792.1780999999999 596.0961505459852
      vertex -2239.0152963227106 1801.5481 596.0961505459851
   endloop
endfacet
facet normal -1.8047785488306478e-15 1.8799776550319065e-15 1.0
   outer loop
      vertex -2239.0152963227106 1801.5481 596.0961505459851
      vertex -2226.9674963227103 1792.1780999999999 596.0961505459852
      vertex -2237.6693963227103 1802.582 596.0961505459851
   endloop
endfacet
facet normal -1.8047785488306478e-15 1.8799776550319065e-15 1.0
   outer loop
      vertex -2237.6693963227103 1802.582 596.0961505459851
      vertex -2226.9674963227103 1792.1780999999999 596.0961505459852
      vertex -2236.6373963227106 1803.9281 596.0961505459851
   endloop
endfacet
facet normal -1.8047785488306478e-15 1.8799776550319065e-15 1.0
   outer loop
      vertex -2236.6373963227106 1803.9281 596.0961505459851
      vertex -2226.9674963227103 1792.1780999999999 596.0961505459852
      vertex -2235.9874963227103 1805.4961 596.0961505459851
   endloop
endfacet
facet normal -1.8047785488306478e-15 1.8799776550319065e-15 1.0
   outer loop
      vertex -2235.9874963227103 1805.4961 596.0961505459851
      vertex -2226.9674963227103 1792.1780999999999 596.0961505459852
      vertex -2235.7652963227106 1807.1781 596.0961505459851
   endloop
endfacet
facet normal -1.8047785488306478e-15 1.8799776550319065e-15 1.0
   outer loop
      vertex -2251.9674963227103 1816.1781 596.0961505459851
      vertex -2243.9493963227105 1813.4561000000003 596.0961505459851
      vertex -2226.9674963227103 1816.1781 596.0961505459851
   endloop
endfacet
facet normal -1.8047785488306478e-15 1.8799776550319065e-15 1.0
   outer loop
      vertex -2243.9493963227105 1813.4561000000003 596.0961505459851
      vertex -2251.9674963227103 1816.1781 596.0961505459851
      vertex -2245.5152963227106 1812.806 596.0961505459851
   endloop
endfacet
facet normal -1.8047785488306478e-15 1.8799776550319065e-15 1.0
   outer loop
      vertex -2245.5152963227106 1812.806 596.0961505459851
      vertex -2251.9674963227103 1816.1781 596.0961505459851
      vertex -2246.8634963227105 1811.7740000000001 596.0961505459851
   endloop
endfacet
facet normal -1.8047785488306478e-15 1.8799776550319065e-15 1.0
   outer loop
      vertex -2246.8634963227105 1811.7740000000001 596.0961505459851
      vertex -2251.9674963227103 1816.1781 596.0961505459851
      vertex -2247.8954963227106 1810.4281 596.0961505459851
   endloop
endfacet
facet normal -1.8047785488306478e-15 1.8799776550319065e-15 1.0
   outer loop
      vertex -2247.8954963227106 1810.4281 596.0961505459851
      vertex -2251.9674963227103 1816.1781 596.0961505459851
      vertex -2248.5453963227105 1808.8601 596.0961505459851
   endloop
endfacet
facet normal -1.8047785488306478e-15 1.8799776550319065e-15 1.0
   outer loop
      vertex -2248.5453963227105 1808.8601 596.0961505459851
      vertex -2251.9674963227103 1816.1781 596.0961505459851
      vertex -2248.7652963227106 1807.1781 596.0961505459851
   endloop
endfacet
facet normal -1.8047785488306478e-15 1.8799776550319065e-15 1.0
   outer loop
      vertex -2226.9674963227103 1816.1781 596.0961505459851
      vertex -2243.9493963227105 1813.4561000000003 596.0961505459851
      vertex -2242.2652963227106 1813.6781 596.0961505459851
   endloop
endfacet
facet normal -1.8047785488306478e-15 1.8799776550319065e-15 1.0
   outer loop
      vertex -2226.9674963227103 1816.1781 596.0961505459851
      vertex -2242.2652963227106 1813.6781 596.0961505459851
      vertex -2240.5834963227103 1813.4561000000003 596.0961505459851
   endloop
endfacet
facet normal -1.8047785488306478e-15 1.8799776550319065e-15 1.0
   outer loop
      vertex -2226.9674963227103 1816.1781 596.0961505459851
      vertex -2240.5834963227103 1813.4561000000003 596.0961505459851
      vertex -2239.0152963227106 1812.806 596.0961505459851
   endloop
endfacet
facet normal -1.8047785488306478e-15 1.8799776550319065e-15 1.0
   outer loop
      vertex -2226.9674963227103 1816.1781 596.0961505459851
      vertex -2239.0152963227106 1812.806 596.0961505459851
      vertex -2237.6693963227103 1811.7740000000001 596.0961505459851
   endloop
endfacet
facet normal -1.8047785488306478e-15 1.8799776550319065e-15 1.0
   outer loop
      vertex -2226.9674963227103 1816.1781 596.0961505459851
      vertex -2237.6693963227103 1811.7740000000001 596.0961505459851
      vertex -2236.6373963227106 1810.4281 596.0961505459851
   endloop
endfacet
facet normal -1.8047785488306478e-15 1.8799776550319065e-15 1.0
   outer loop
      vertex -2226.9674963227103 1816.1781 596.0961505459851
      vertex -2236.6373963227106 1810.4281 596.0961505459851
      vertex -2235.9874963227103 1808.8601 596.0961505459851
   endloop
endfacet
facet normal -1.8047785488306478e-15 1.8799776550319065e-15 1.0
   outer loop
      vertex -2226.9674963227103 1816.1781 596.0961505459851
      vertex -2235.9874963227103 1808.8601 596.0961505459851
      vertex -2235.7652963227106 1807.1781 596.0961505459851
   endloop
endfacet
facet normal -1.8047785488306478e-15 1.8799776550319065e-15 1.0
   outer loop
      vertex -2226.9674963227103 1816.1781 596.0961505459851
      vertex -2235.7652963227106 1807.1781 596.0961505459851
      vertex -2226.9674963227103 1792.1780999999999 596.0961505459852
   endloop
endfacet
facet normal -0.25887582018820454 -0.9659106116623236 0.0
   outer loop
      vertex -2231.7761 1812.316 640.096
      vertex -2232.2942000000003 1812.384 636.096
      vertex -2231.7761 1812.316 636.096
   endloop
endfacet
facet normal -0.25887582018820454 -0.9659106116623236 0.0
   outer loop
      vertex -2232.2942000000003 1812.384 636.096
      vertex -2231.7761 1812.316 640.096
      vertex -2232.2942000000003 1812.384 640.096
   endloop
endfacet
facet normal -0.8663240056422239 0.49948244938937764 0.0
   outer loop
      vertex -2230.562 1809.384 640.096
      vertex -2230.8801000000003 1808.9681 636.096
      vertex -2230.8801000000003 1808.9681 640.096
   endloop
endfacet
facet normal -0.8663240056422239 0.49948244938937764 0.0
   outer loop
      vertex -2230.8801000000003 1808.9681 636.096
      vertex -2230.562 1809.384 640.096
      vertex -2230.562 1809.384 636.096
   endloop
endfacet
facet normal -0.9999999747430695 -0.00022475288715894761 0.0
   outer loop
      vertex -2230.2942000000003 1810.384 640.096
      vertex -2230.3621000000003 1809.8661000000002 636.096
      vertex -2230.3621000000003 1809.8661000000002 640.096
   endloop
endfacet
facet normal -0.9999999747430695 -0.00022475288715894761 0.0
   outer loop
      vertex -2230.3621000000003 1809.8661000000002 636.096
      vertex -2230.2942000000003 1810.384 640.096
      vertex -2230.2942000000003 1810.384 636.096
   endloop
endfacet
facet normal -0.5003871146704331 -0.8658017876349061 0.0
   outer loop
      vertex -2231.2942000000003 1812.1161000000002 640.096
      vertex -2231.7761 1812.316 636.096
      vertex -2231.2942000000003 1812.1161000000002 636.096
   endloop
endfacet
facet normal -0.5003871146704331 -0.8658017876349061 0.0
   outer loop
      vertex -2231.7761 1812.316 636.096
      vertex -2231.2942000000003 1812.1161000000002 640.096
      vertex -2231.7761 1812.316 640.096
   endloop
endfacet
facet normal 0.2588055710962477 -0.9659294365374445 0.0
   outer loop
      vertex -2232.812 1812.316 640.096
      vertex -2233.2942000000003 1812.1161000000002 636.096
      vertex -2232.812 1812.316 636.096
   endloop
endfacet
facet normal 0.2588055710962477 -0.9659294365374445 0.0
   outer loop
      vertex -2233.2942000000003 1812.1161000000002 636.096
      vertex -2232.812 1812.316 640.096
      vertex -2233.2942000000003 1812.1161000000002 640.096
   endloop
endfacet
facet normal -0.259046802579463 0.9658647700756854 0.0
   outer loop
      vertex -2231.7761 1808.452 640.096
      vertex -2231.2942000000003 1808.6521 636.096
      vertex -2231.7761 1808.452 636.096
   endloop
endfacet
facet normal -0.259046802579463 0.9658647700756854 0.0
   outer loop
      vertex -2231.2942000000003 1808.6521 636.096
      vertex -2231.7761 1808.452 640.096
      vertex -2231.2942000000003 1808.6521 640.096
   endloop
endfacet
facet normal 3.7376851497594266e-05 0.9999999993014855 0.0
   outer loop
      vertex -2232.2942000000003 1808.3840000000002 640.096
      vertex -2231.7761 1808.452 636.096
      vertex -2232.2942000000003 1808.3840000000002 636.096
   endloop
endfacet
facet normal 3.7376851497594266e-05 0.9999999993014855 0.0
   outer loop
      vertex -2231.7761 1808.452 636.096
      vertex -2232.2942000000003 1808.3840000000002 640.096
      vertex -2231.7761 1808.452 640.096
   endloop
endfacet
facet normal 0.9999999745991437 -0.00022539235087075098 0.0
   outer loop
      vertex -2234.2942000000003 1810.384 636.096
      vertex -2234.2261000000003 1809.8661000000002 640.096
      vertex -2234.2261000000003 1809.8661000000002 636.096
   endloop
endfacet
facet normal 0.9999999745991437 -0.00022539235087075098 0.0
   outer loop
      vertex -2234.2261000000003 1809.8661000000002 640.096
      vertex -2234.2942000000003 1810.384 636.096
      vertex -2234.2942000000003 1810.384 640.096
   endloop
endfacet
facet normal -0.49997398484752575 -0.86604042311874 0.0
   outer loop
      vertex -2239.0152963227106 1812.806 596.0961505459851
      vertex -2240.5834963227103 1813.4561000000003 592.0961505459851
      vertex -2239.0152963227106 1812.806 592.0961505459851
   endloop
endfacet
facet normal -0.49997398484752575 -0.86604042311874 0.0
   outer loop
      vertex -2240.5834963227103 1813.4561000000003 592.0961505459851
      vertex -2239.0152963227106 1812.806 596.0961505459851
      vertex -2240.5834963227103 1813.4561000000003 596.0961505459851
   endloop
endfacet
facet normal 0.965875682224849 0.25900611283651725 0.0
   outer loop
      vertex -2234.2261000000003 1809.8661000000002 636.096
      vertex -2234.0261 1809.384 640.096
      vertex -2234.0261 1809.384 636.096
   endloop
endfacet
facet normal 0.965875682224849 0.25900611283651725 0.0
   outer loop
      vertex -2234.0261 1809.384 640.096
      vertex -2234.2261000000003 1809.8661000000002 636.096
      vertex -2234.2261000000003 1809.8661000000002 640.096
   endloop
endfacet
facet normal -0.9659477278237716 0.25873729362442727 0.0
   outer loop
      vertex -2230.3621000000003 1809.8661000000002 640.096
      vertex -2230.562 1809.384 636.096
      vertex -2230.562 1809.384 640.096
   endloop
endfacet
facet normal -0.9659477278237716 0.25873729362442727 0.0
   outer loop
      vertex -2230.562 1809.384 636.096
      vertex -2230.3621000000003 1809.8661000000002 640.096
      vertex -2230.3621000000003 1809.8661000000002 636.096
   endloop
endfacet
facet normal -0.8660563531340199 -0.4999463903222041 0.0
   outer loop
      vertex -2236.6373963227106 1810.4281 596.0961505459851
      vertex -2235.9874963227103 1808.8601 592.0961505459851
      vertex -2235.9874963227103 1808.8601 596.0961505459851
   endloop
endfacet
facet normal -0.8660563531340199 -0.4999463903222041 0.0
   outer loop
      vertex -2235.9874963227103 1808.8601 592.0961505459851
      vertex -2236.6373963227106 1810.4281 596.0961505459851
      vertex -2236.6373963227106 1810.4281 592.0961505459851
   endloop
endfacet
facet normal 0.12658962823212946 0.9919551733944691 0.0
   outer loop
      vertex -2242.6092963227106 1800.722 593.0961505459851
      vertex -2242.2652963227106 1800.6781 592.0961505459851
      vertex -2242.6092963227106 1800.722 592.0961505459851
   endloop
endfacet
facet normal 0.12658962823212946 0.9919551733944691 0.0
   outer loop
      vertex -2242.2652963227106 1800.6781 592.0961505459851
      vertex -2242.6092963227106 1800.722 593.0961505459851
      vertex -2242.2652963227106 1800.6781 593.0961505459851
   endloop
endfacet
facet normal 0.0 0.0 -1.0
   outer loop
      vertex -2251.9674963227103 1816.1781 592.0961505459851
      vertex -2248.5453963227105 1808.8601 592.0961505459851
      vertex -2251.9674963227103 1790.1781000000003 592.0961505459851
   endloop
endfacet
facet normal 0.0 0.0 -1.0
   outer loop
      vertex -2248.5453963227105 1808.8601 592.0961505459851
      vertex -2251.9674963227103 1816.1781 592.0961505459851
      vertex -2247.8954963227106 1810.4281 592.0961505459851
   endloop
endfacet
facet normal 0.0 0.0 -1.0
   outer loop
      vertex -2247.8954963227106 1810.4281 592.0961505459851
      vertex -2251.9674963227103 1816.1781 592.0961505459851
      vertex -2246.8634963227105 1811.7740000000001 592.0961505459851
   endloop
endfacet
facet normal 0.0 0.0 -1.0
   outer loop
      vertex -2246.8634963227105 1811.7740000000001 592.0961505459851
      vertex -2251.9674963227103 1816.1781 592.0961505459851
      vertex -2245.5152963227106 1812.806 592.0961505459851
   endloop
endfacet
facet normal 0.0 0.0 -1.0
   outer loop
      vertex -2245.5152963227106 1812.806 592.0961505459851
      vertex -2251.9674963227103 1816.1781 592.0961505459851
      vertex -2243.9493963227105 1813.4561000000003 592.0961505459851
   endloop
endfacet
facet normal 0.0 0.0 -1.0
   outer loop
      vertex -2243.9493963227105 1813.4561000000003 592.0961505459851
      vertex -2251.9674963227103 1816.1781 592.0961505459851
      vertex -2242.2652963227106 1813.6781 592.0961505459851
   endloop
endfacet
facet normal 0.0 0.0 -1.0
   outer loop
      vertex -2242.2652963227106 1813.6781 592.0961505459851
      vertex -2251.9674963227103 1816.1781 592.0961505459851
      vertex -2222.9913963227104 1816.1781 592.0961505459851
   endloop
endfacet
facet normal 0.0 0.0 -1.0
   outer loop
      vertex -2251.9674963227103 1790.1781000000003 592.0961505459851
      vertex -2248.5453963227105 1808.8601 592.0961505459851
      vertex -2248.7652963227106 1807.1781 592.0961505459851
   endloop
endfacet
facet normal 0.0 0.0 -1.0
   outer loop
      vertex -2243.9493963227105 1813.4561000000003 592.0961505459851
      vertex -2242.2652963227106 1813.6781 592.0961505459851
      vertex -2242.6092963227106 1813.6321000000003 592.0961505459851
   endloop
endfacet
facet normal 0.0 0.0 -1.0
   outer loop
      vertex -2242.2652963227106 1813.6781 592.0961505459851
      vertex -2222.9913963227104 1816.1781 592.0961505459851
      vertex -2240.5834963227103 1813.4561000000003 592.0961505459851
   endloop
endfacet
facet normal 0.0 0.0 -1.0
   outer loop
      vertex -2240.5834963227103 1813.4561000000003 592.0961505459851
      vertex -2222.9913963227104 1816.1781 592.0961505459851
      vertex -2239.0152963227106 1812.806 592.0961505459851
   endloop
endfacet
facet normal 0.0 0.0 -1.0
   outer loop
      vertex -2239.0152963227106 1812.806 592.0961505459851
      vertex -2222.9913963227104 1816.1781 592.0961505459851
      vertex -2237.6693963227103 1811.7740000000001 592.0961505459851
   endloop
endfacet
facet normal 0.0 0.0 -1.0
   outer loop
      vertex -2237.6693963227103 1811.7740000000001 592.0961505459851
      vertex -2222.9913963227104 1816.1781 592.0961505459851
      vertex -2236.6373963227106 1810.4281 592.0961505459851
   endloop
endfacet
facet normal 0.0 0.0 -1.0
   outer loop
      vertex -2236.6373963227106 1810.4281 592.0961505459851
      vertex -2222.9913963227104 1816.1781 592.0961505459851
      vertex -2235.9874963227103 1808.8601 592.0961505459851
   endloop
endfacet
facet normal 0.0 0.0 -1.0
   outer loop
      vertex -2235.9874963227103 1808.8601 592.0961505459851
      vertex -2222.9913963227104 1816.1781 592.0961505459851
      vertex -2235.7652963227106 1807.1781 592.0961505459851
   endloop
endfacet
facet normal 0.0 0.0 -1.0
   outer loop
      vertex -2251.9674963227103 1790.1781000000003 592.0961505459851
      vertex -2245.5152963227106 1801.5481 592.0961505459851
      vertex -2222.9913963227104 1790.1780999999999 592.0961505459851
   endloop
endfacet
facet normal 0.0 0.0 -1.0
   outer loop
      vertex -2245.5152963227106 1801.5481 592.0961505459851
      vertex -2251.9674963227103 1790.1781000000003 592.0961505459851
      vertex -2246.8634963227105 1802.582 592.0961505459851
   endloop
endfacet
facet normal 0.0 0.0 -1.0
   outer loop
      vertex -2246.8634963227105 1802.582 592.0961505459851
      vertex -2251.9674963227103 1790.1781000000003 592.0961505459851
      vertex -2247.8954963227106 1803.9281 592.0961505459851
   endloop
endfacet
facet normal 0.0 0.0 -1.0
   outer loop
      vertex -2247.8954963227106 1803.9281 592.0961505459851
      vertex -2251.9674963227103 1790.1781000000003 592.0961505459851
      vertex -2248.5453963227105 1805.4961 592.0961505459851
   endloop
endfacet
facet normal 0.0 0.0 -1.0
   outer loop
      vertex -2248.5453963227105 1805.4961 592.0961505459851
      vertex -2251.9674963227103 1790.1781000000003 592.0961505459851
      vertex -2248.7652963227106 1807.1781 592.0961505459851
   endloop
endfacet
facet normal 0.0 0.0 -1.0
   outer loop
      vertex -2222.9913963227104 1790.1780999999999 592.0961505459851
      vertex -2245.5152963227106 1801.5481 592.0961505459851
      vertex -2243.9493963227105 1800.9001 592.0961505459851
   endloop
endfacet
facet normal 0.0 0.0 -1.0
   outer loop
      vertex -2222.9913963227104 1790.1780999999999 592.0961505459851
      vertex -2243.9493963227105 1800.9001 592.0961505459851
      vertex -2242.6092963227106 1800.722 592.0961505459851
   endloop
endfacet
facet normal 0.0 0.0 -1.0
   outer loop
      vertex -2222.9913963227104 1790.1780999999999 592.0961505459851
      vertex -2242.6092963227106 1800.722 592.0961505459851
      vertex -2242.2652963227106 1800.6781 592.0961505459851
   endloop
endfacet
facet normal 0.0 0.0 -1.0
   outer loop
      vertex -2222.9913963227104 1790.1780999999999 592.0961505459851
      vertex -2242.2652963227106 1800.6781 592.0961505459851
      vertex -2240.5834963227103 1800.9001 592.0961505459851
   endloop
endfacet
facet normal 0.0 0.0 -1.0
   outer loop
      vertex -2222.9913963227104 1790.1780999999999 592.0961505459851
      vertex -2240.5834963227103 1800.9001 592.0961505459851
      vertex -2239.0152963227106 1801.5481 592.0961505459851
   endloop
endfacet
facet normal 0.0 0.0 -1.0
   outer loop
      vertex -2222.9913963227104 1790.1780999999999 592.0961505459851
      vertex -2239.0152963227106 1801.5481 592.0961505459851
      vertex -2237.6693963227103 1802.582 592.0961505459851
   endloop
endfacet
facet normal 0.0 0.0 -1.0
   outer loop
      vertex -2222.9913963227104 1790.1780999999999 592.0961505459851
      vertex -2237.6693963227103 1802.582 592.0961505459851
      vertex -2236.6373963227106 1803.9281 592.0961505459851
   endloop
endfacet
facet normal 0.0 0.0 -1.0
   outer loop
      vertex -2222.9913963227104 1790.1780999999999 592.0961505459851
      vertex -2236.6373963227106 1803.9281 592.0961505459851
      vertex -2235.9874963227103 1805.4961 592.0961505459851
   endloop
endfacet
facet normal 0.0 0.0 -1.0
   outer loop
      vertex -2222.9913963227104 1790.1780999999999 592.0961505459851
      vertex -2235.9874963227103 1805.4961 592.0961505459851
      vertex -2235.7652963227106 1807.1781 592.0961505459851
   endloop
endfacet
facet normal 0.0 0.0 -1.0
   outer loop
      vertex -2222.9913963227104 1790.1780999999999 592.0961505459851
      vertex -2235.7652963227106 1807.1781 592.0961505459851
      vertex -2222.9913963227104 1816.1781 592.0961505459851
   endloop
endfacet
facet normal -0.2588190451026222 -0.9659258262890411 0.0
   outer loop
      vertex -2231.776561909795 1800.3158516525782 640.096
      vertex -2232.2942000000003 1800.3840000000002 636.0960000000003
      vertex -2231.776561909795 1800.3158516525782 636.0960000000003
   endloop
endfacet
facet normal -0.2588190451026222 -0.9659258262890411 0.0
   outer loop
      vertex -2232.2942000000003 1800.3840000000002 636.0960000000003
      vertex -2231.776561909795 1800.3158516525782 640.096
      vertex -2232.2942000000003 1800.3840000000002 640.096
   endloop
endfacet
facet normal 0.8660254037845825 0.49999999999975103 0.0
   outer loop
      vertex -2234.026250807569 1797.3840000000002 636.0960000000003
      vertex -2233.708413562373 1796.9697864376271 640.096
      vertex -2233.708413562373 1796.9697864376271 636.0960000000003
   endloop
endfacet
facet normal 0.8660254037845825 0.49999999999975103 0.0
   outer loop
      vertex -2233.708413562373 1796.9697864376271 640.096
      vertex -2234.026250807569 1797.3840000000002 636.0960000000003
      vertex -2234.026250807569 1797.3840000000002 640.096
   endloop
endfacet
facet normal 0.49999999999968325 0.8660254037846216 0.0
   outer loop
      vertex -2233.2942 1796.6519491924314 640.096
      vertex -2232.811838090205 1796.4521483474223 636.0960000000003
      vertex -2233.2942 1796.6519491924314 636.0960000000003
   endloop
endfacet
facet normal 0.49999999999968325 0.8660254037846216 0.0
   outer loop
      vertex -2232.811838090205 1796.4521483474223 636.0960000000003
      vertex -2233.2942 1796.6519491924314 640.096
      vertex -2232.811838090205 1796.4521483474223 640.096
   endloop
endfacet
facet normal 0.2588190451026222 0.9659258262890411 0.0
   outer loop
      vertex -2232.811838090205 1796.4521483474223 640.096
      vertex -2232.2942000000003 1796.3840000000005 636.0960000000003
      vertex -2232.811838090205 1796.4521483474223 636.0960000000003
   endloop
endfacet
facet normal 0.2588190451026222 0.9659258262890411 0.0
   outer loop
      vertex -2232.2942000000003 1796.3840000000005 636.0960000000003
      vertex -2232.811838090205 1796.4521483474223 640.096
      vertex -2232.2942000000003 1796.3840000000005 640.096
   endloop
endfacet
facet normal 0.0 0.9999999999999999 0.0
   outer loop
      vertex -2232.2942000000003 1796.3840000000005 640.096
      vertex -2231.776561909795 1796.4521483474223 636.0960000000003
      vertex -2232.2942000000003 1796.3840000000005 636.0960000000003
   endloop
endfacet
facet normal 0.0 0.9999999999999999 0.0
   outer loop
      vertex -2231.776561909795 1796.4521483474223 636.0960000000003
      vertex -2232.2942000000003 1796.3840000000005 640.096
      vertex -2231.776561909795 1796.4521483474223 640.096
   endloop
endfacet
facet normal 0.9659258262890411 -0.2588190451026222 0.0
   outer loop
      vertex -2234.226051652578 1798.9016380902053 636.0960000000003
      vertex -2234.2942 1798.3840000000002 640.096
      vertex -2234.2942 1798.3840000000002 636.0960000000003
   endloop
endfacet
facet normal 0.9659258262890411 -0.2588190451026222 0.0
   outer loop
      vertex -2234.2942 1798.3840000000002 640.096
      vertex -2234.226051652578 1798.9016380902053 636.0960000000003
      vertex -2234.226051652578 1798.9016380902053 640.096
   endloop
endfacet
facet normal -0.2588190451024945 0.9659258262890754 0.0
   outer loop
      vertex -2231.776561909795 1796.4521483474223 640.096
      vertex -2231.2942 1796.6519491924314 636.0960000000003
      vertex -2231.776561909795 1796.4521483474223 636.0960000000003
   endloop
endfacet
facet normal -0.2588190451024945 0.9659258262890754 0.0
   outer loop
      vertex -2231.2942 1796.6519491924314 636.0960000000003
      vertex -2231.776561909795 1796.4521483474223 640.096
      vertex -2231.2942 1796.6519491924314 640.096
   endloop
endfacet
facet normal -0.49999999999975103 0.8660254037845825 0.0
   outer loop
      vertex -2231.2942 1796.6519491924314 640.096
      vertex -2230.879986437627 1796.9697864376271 636.0960000000003
      vertex -2231.2942 1796.6519491924314 636.0960000000003
   endloop
endfacet
facet normal -0.49999999999975103 0.8660254037845825 0.0
   outer loop
      vertex -2230.879986437627 1796.9697864376271 636.0960000000003
      vertex -2231.2942 1796.6519491924314 640.096
      vertex -2230.879986437627 1796.9697864376271 640.096
   endloop
endfacet
facet normal -0.8660254037846216 0.49999999999968325 0.0
   outer loop
      vertex -2230.562149192431 1797.3840000000005 640.096
      vertex -2230.879986437627 1796.9697864376271 636.0960000000003
      vertex -2230.879986437627 1796.9697864376271 640.096
   endloop
endfacet
facet normal -0.8660254037846216 0.49999999999968325 0.0
   outer loop
      vertex -2230.879986437627 1796.9697864376271 636.0960000000003
      vertex -2230.562149192431 1797.3840000000005 640.096
      vertex -2230.562149192431 1797.3840000000005 636.0960000000003
   endloop
endfacet
facet normal 0.9999999999999999 0.0 0.0
   outer loop
      vertex -2234.2942 1798.3840000000002 636.0960000000003
      vertex -2234.226051652578 1797.8663619097952 640.096
      vertex -2234.226051652578 1797.8663619097952 636.0960000000003
   endloop
endfacet
facet normal 0.9999999999999999 0.0 0.0
   outer loop
      vertex -2234.226051652578 1797.8663619097952 640.096
      vertex -2234.2942 1798.3840000000002 636.0960000000003
      vertex -2234.2942 1798.3840000000002 640.096
   endloop
endfacet
facet normal 0.0 -1.0 0.0
   outer loop
      vertex -2232.2942000000003 1800.3840000000002 640.096
      vertex -2232.811838090205 1800.3158516525782 636.0960000000003
      vertex -2232.2942000000003 1800.3840000000002 636.0960000000003
   endloop
endfacet
facet normal 0.0 -1.0 0.0
   outer loop
      vertex -2232.811838090205 1800.3158516525782 636.0960000000003
      vertex -2232.2942000000003 1800.3840000000002 640.096
      vertex -2232.811838090205 1800.3158516525782 640.096
   endloop
endfacet
facet normal 0.2588190451024945 -0.9659258262890754 0.0
   outer loop
      vertex -2232.811838090205 1800.3158516525782 640.096
      vertex -2233.2942000000003 1800.116050807569 636.0960000000003
      vertex -2232.811838090205 1800.3158516525782 636.0960000000003
   endloop
endfacet
facet normal 0.2588190451024945 -0.9659258262890754 0.0
   outer loop
      vertex -2233.2942000000003 1800.116050807569 636.0960000000003
      vertex -2232.811838090205 1800.3158516525782 640.096
      vertex -2233.2942000000003 1800.116050807569 640.096
   endloop
endfacet
facet normal 0.49999999999975103 -0.8660254037845825 0.0
   outer loop
      vertex -2233.2942000000003 1800.116050807569 640.096
      vertex -2233.708413562373 1799.7982135623736 636.0960000000003
      vertex -2233.2942000000003 1800.116050807569 636.0960000000003
   endloop
endfacet
facet normal 0.49999999999975103 -0.8660254037845825 0.0
   outer loop
      vertex -2233.708413562373 1799.7982135623736 636.0960000000003
      vertex -2233.2942000000003 1800.116050807569 640.096
      vertex -2233.708413562373 1799.7982135623736 640.096
   endloop
endfacet
facet normal 0.7071067811866963 -0.7071067811863988 0.0
   outer loop
      vertex -2233.708413562373 1799.7982135623736 636.0960000000003
      vertex -2234.026250807569 1799.384 640.096
      vertex -2234.026250807569 1799.384 636.0960000000003
   endloop
endfacet
facet normal 0.7071067811866963 -0.7071067811863988 0.0
   outer loop
      vertex -2234.026250807569 1799.384 640.096
      vertex -2233.708413562373 1799.7982135623736 636.0960000000003
      vertex -2233.708413562373 1799.7982135623736 640.096
   endloop
endfacet
facet normal 0.8660254037846216 -0.49999999999968325 0.0
   outer loop
      vertex -2234.026250807569 1799.384 636.0960000000003
      vertex -2234.226051652578 1798.9016380902053 640.096
      vertex -2234.226051652578 1798.9016380902053 636.0960000000003
   endloop
endfacet
facet normal 0.8660254037846216 -0.49999999999968325 0.0
   outer loop
      vertex -2234.226051652578 1798.9016380902053 640.096
      vertex -2234.026250807569 1799.384 636.0960000000003
      vertex -2234.026250807569 1799.384 640.096
   endloop
endfacet
facet normal 0.9659258262890754 0.2588190451024945 0.0
   outer loop
      vertex -2234.226051652578 1797.8663619097952 636.0960000000003
      vertex -2234.026250807569 1797.3840000000002 640.096
      vertex -2234.026250807569 1797.3840000000002 636.0960000000003
   endloop
endfacet
facet normal 0.9659258262890754 0.2588190451024945 0.0
   outer loop
      vertex -2234.026250807569 1797.3840000000002 640.096
      vertex -2234.226051652578 1797.8663619097952 636.0960000000003
      vertex -2234.226051652578 1797.8663619097952 640.096
   endloop
endfacet
facet normal 0.7071067811863988 0.7071067811866963 0.0
   outer loop
      vertex -2233.708413562373 1796.9697864376271 640.096
      vertex -2233.2942 1796.6519491924314 636.0960000000003
      vertex -2233.708413562373 1796.9697864376271 636.0960000000003
   endloop
endfacet
facet normal 0.7071067811863988 0.7071067811866963 0.0
   outer loop
      vertex -2233.2942 1796.6519491924314 636.0960000000003
      vertex -2233.708413562373 1796.9697864376271 640.096
      vertex -2233.2942 1796.6519491924314 640.096
   endloop
endfacet
facet normal -0.49999999999968325 -0.8660254037846216 0.0
   outer loop
      vertex -2231.2942000000003 1800.116050807569 640.096
      vertex -2231.776561909795 1800.3158516525782 636.0960000000003
      vertex -2231.2942000000003 1800.116050807569 636.0960000000003
   endloop
endfacet
facet normal -0.49999999999968325 -0.8660254037846216 0.0
   outer loop
      vertex -2231.776561909795 1800.3158516525782 636.0960000000003
      vertex -2231.2942000000003 1800.116050807569 640.096
      vertex -2231.776561909795 1800.3158516525782 640.096
   endloop
endfacet
facet normal -0.8660254037845825 -0.49999999999975103 0.0
   outer loop
      vertex -2230.562149192431 1799.3840000000005 640.096
      vertex -2230.362348347422 1798.9016380902053 636.0960000000003
      vertex -2230.362348347422 1798.9016380902053 640.096
   endloop
endfacet
facet normal -0.8660254037845825 -0.49999999999975103 0.0
   outer loop
      vertex -2230.362348347422 1798.9016380902053 636.0960000000003
      vertex -2230.562149192431 1799.3840000000005 640.096
      vertex -2230.562149192431 1799.3840000000005 636.0960000000003
   endloop
endfacet
facet normal -0.9659258262890754 -0.2588190451024945 0.0
   outer loop
      vertex -2230.362348347422 1798.9016380902053 640.096
      vertex -2230.2942000000003 1798.3840000000002 636.0960000000003
      vertex -2230.2942000000003 1798.3840000000002 640.096
   endloop
endfacet
facet normal -0.9659258262890754 -0.2588190451024945 0.0
   outer loop
      vertex -2230.2942000000003 1798.3840000000002 636.0960000000003
      vertex -2230.362348347422 1798.9016380902053 640.096
      vertex -2230.362348347422 1798.9016380902053 636.0960000000003
   endloop
endfacet
facet normal -0.7071067811863988 -0.7071067811866963 0.0
   outer loop
      vertex -2230.879986437627 1799.7982135623736 640.096
      vertex -2230.562149192431 1799.3840000000005 636.0960000000003
      vertex -2230.562149192431 1799.3840000000005 640.096
   endloop
endfacet
facet normal -0.7071067811863988 -0.7071067811866963 0.0
   outer loop
      vertex -2230.562149192431 1799.3840000000005 636.0960000000003
      vertex -2230.879986437627 1799.7982135623736 640.096
      vertex -2230.879986437627 1799.7982135623736 636.0960000000003
   endloop
endfacet
facet normal -0.9659258262890411 0.2588190451026222 0.0
   outer loop
      vertex -2230.362348347422 1797.8663619097952 640.096
      vertex -2230.562149192431 1797.3840000000005 636.0960000000003
      vertex -2230.562149192431 1797.3840000000005 640.096
   endloop
endfacet
facet normal -0.9659258262890411 0.2588190451026222 0.0
   outer loop
      vertex -2230.562149192431 1797.3840000000005 636.0960000000003
      vertex -2230.362348347422 1797.8663619097952 640.096
      vertex -2230.362348347422 1797.8663619097952 636.0960000000003
   endloop
endfacet
facet normal -0.9999999999999999 0.0 0.0
   outer loop
      vertex -2230.2942000000003 1798.3840000000002 640.096
      vertex -2230.362348347422 1797.8663619097952 636.0960000000003
      vertex -2230.362348347422 1797.8663619097952 640.096
   endloop
endfacet
facet normal -0.9999999999999999 0.0 0.0
   outer loop
      vertex -2230.362348347422 1797.8663619097952 636.0960000000003
      vertex -2230.2942000000003 1798.3840000000002 640.096
      vertex -2230.2942000000003 1798.3840000000002 636.0960000000003
   endloop
endfacet
facet normal -0.7071067811863988 -0.7071067811866963 0.0
   outer loop
      vertex -2230.879986437627 1799.7982135623736 640.096
      vertex -2231.2942000000003 1800.116050807569 636.0960000000003
      vertex -2230.879986437627 1799.7982135623736 636.0960000000003
   endloop
endfacet
facet normal -0.7071067811863988 -0.7071067811866963 0.0
   outer loop
      vertex -2231.2942000000003 1800.116050807569 636.0960000000003
      vertex -2230.879986437627 1799.7982135623736 640.096
      vertex -2231.2942000000003 1800.116050807569 640.096
   endloop
endfacet
endsolid no_name
