solid AutoSave_vmax40doubleextrudert final 2016
facet normal -0.0 1.0 -0.0
  outer loop
    vertex 0.03 29.99800109863281 29.99800109863281
    vertex 19.96800109863281 29.99800109863281 0.0
    vertex 0.03 29.99800109863281 0.0
  endloop
endfacet
facet normal -0.0 1.0 -0.0
  outer loop
    vertex 19.96800109863281 29.99800109863281 0.0
    vertex 0.03 29.99800109863281 29.99800109863281
    vertex 7.660000324249267 29.99800109863281 18.650001525878906
  endloop
endfacet
facet normal -0.0 1.0 -0.0
  outer loop
    vertex 19.96800109863281 29.99800109863281 0.0
    vertex 7.660000324249267 29.99800109863281 18.650001525878906
    vertex 8.09000015258789 29.99800109863281 18.09000015258789
  endloop
endfacet
facet normal -0.0 1.0 -0.0
  outer loop
    vertex 19.96800109863281 29.99800109863281 0.0
    vertex 8.09000015258789 29.99800109863281 18.09000015258789
    vertex 8.650000572204588 29.99800109863281 17.660001754760742
  endloop
endfacet
facet normal -0.0 1.0 -0.0
  outer loop
    vertex 19.96800109863281 29.99800109863281 0.0
    vertex 8.650000572204588 29.99800109863281 17.660001754760742
    vertex 9.300000190734863 29.99800109863281 17.392000198364258
  endloop
endfacet
facet normal -0.0 1.0 -0.0
  outer loop
    vertex 19.96800109863281 29.99800109863281 0.0
    vertex 9.300000190734863 29.99800109863281 17.392000198364258
    vertex 9.998000144958496 29.99800109863281 17.300001144409176
  endloop
endfacet
facet normal -0.0 1.0 -0.0
  outer loop
    vertex 7.660000324249267 29.99800109863281 18.650001525878906
    vertex 0.03 29.99800109863281 29.99800109863281
    vertex 7.392000198364257 29.99800109863281 19.30000114440918
  endloop
endfacet
facet normal -0.0 1.0 -0.0
  outer loop
    vertex 7.392000198364257 29.99800109863281 19.30000114440918
    vertex 0.03 29.99800109863281 29.99800109863281
    vertex 7.300000190734863 29.99800109863281 19.998001098632812
  endloop
endfacet
facet normal -0.0 1.0 -0.0
  outer loop
    vertex 7.300000190734863 29.99800109863281 19.998001098632812
    vertex 0.03 29.99800109863281 29.99800109863281
    vertex 7.392000198364257 29.99800109863281 20.698001861572262
  endloop
endfacet
facet normal -0.0 1.0 -0.0
  outer loop
    vertex 7.392000198364257 29.99800109863281 20.698001861572262
    vertex 0.03 29.99800109863281 29.99800109863281
    vertex 7.660000324249267 29.99800109863281 21.348001480102536
  endloop
endfacet
facet normal -0.0 1.0 -0.0
  outer loop
    vertex 7.660000324249267 29.99800109863281 21.348001480102536
    vertex 0.03 29.99800109863281 29.99800109863281
    vertex 8.09000015258789 29.99800109863281 21.90800094604492
  endloop
endfacet
facet normal -0.0 1.0 -0.0
  outer loop
    vertex 8.09000015258789 29.99800109863281 21.90800094604492
    vertex 0.03 29.99800109863281 29.99800109863281
    vertex 8.650000572204588 29.99800109863281 22.3380012512207
  endloop
endfacet
facet normal -0.0 1.0 -0.0
  outer loop
    vertex 8.650000572204588 29.99800109863281 22.3380012512207
    vertex 0.03 29.99800109863281 29.99800109863281
    vertex 9.300000190734863 29.99800109863281 22.606000900268555
  endloop
endfacet
facet normal -0.0 1.0 -0.0
  outer loop
    vertex 9.300000190734863 29.99800109863281 22.606000900268555
    vertex 0.03 29.99800109863281 29.99800109863281
    vertex 9.998000144958496 29.99800109863281 22.70000076293945
  endloop
endfacet
facet normal -0.0 1.0 -0.0
  outer loop
    vertex 19.96800109863281 29.99800109863281 0.0
    vertex 12.338000297546385 29.99800109863281 18.650001525878906
    vertex 19.96800109863281 29.99800109863281 29.99800109863281
  endloop
endfacet
facet normal -0.0 1.0 -0.0
  outer loop
    vertex 12.338000297546385 29.99800109863281 18.650001525878906
    vertex 19.96800109863281 29.99800109863281 0.0
    vertex 11.908000946044922 29.99800109863281 18.09000015258789
  endloop
endfacet
facet normal -0.0 1.0 -0.0
  outer loop
    vertex 11.908000946044922 29.99800109863281 18.09000015258789
    vertex 19.96800109863281 29.99800109863281 0.0
    vertex 11.34800052642822 29.99800109863281 17.660001754760742
  endloop
endfacet
facet normal -0.0 1.0 -0.0
  outer loop
    vertex 11.34800052642822 29.99800109863281 17.660001754760742
    vertex 19.96800109863281 29.99800109863281 0.0
    vertex 10.69800090789795 29.99800109863281 17.392000198364258
  endloop
endfacet
facet normal -0.0 1.0 -0.0
  outer loop
    vertex 10.69800090789795 29.99800109863281 17.392000198364258
    vertex 19.96800109863281 29.99800109863281 0.0
    vertex 9.998000144958496 29.99800109863281 17.300001144409176
  endloop
endfacet
facet normal -0.0 1.0 -0.0
  outer loop
    vertex 19.96800109863281 29.99800109863281 29.99800109863281
    vertex 12.338000297546385 29.99800109863281 18.650001525878906
    vertex 12.606000900268555 29.99800109863281 19.30000114440918
  endloop
endfacet
facet normal -0.0 1.0 -0.0
  outer loop
    vertex 19.96800109863281 29.99800109863281 29.99800109863281
    vertex 12.606000900268555 29.99800109863281 19.30000114440918
    vertex 12.698000907897947 29.99800109863281 19.998001098632812
  endloop
endfacet
facet normal -0.0 1.0 -0.0
  outer loop
    vertex 19.96800109863281 29.99800109863281 29.99800109863281
    vertex 12.698000907897947 29.99800109863281 19.998001098632812
    vertex 12.606000900268555 29.99800109863281 20.698001861572262
  endloop
endfacet
facet normal -0.0 1.0 -0.0
  outer loop
    vertex 19.96800109863281 29.99800109863281 29.99800109863281
    vertex 12.606000900268555 29.99800109863281 20.698001861572262
    vertex 12.338000297546385 29.99800109863281 21.348001480102536
  endloop
endfacet
facet normal -0.0 1.0 -0.0
  outer loop
    vertex 19.96800109863281 29.99800109863281 29.99800109863281
    vertex 12.338000297546385 29.99800109863281 21.348001480102536
    vertex 11.908000946044922 29.99800109863281 21.90800094604492
  endloop
endfacet
facet normal -0.0 1.0 -0.0
  outer loop
    vertex 19.96800109863281 29.99800109863281 29.99800109863281
    vertex 11.908000946044922 29.99800109863281 21.90800094604492
    vertex 11.34800052642822 29.99800109863281 22.3380012512207
  endloop
endfacet
facet normal -0.0 1.0 -0.0
  outer loop
    vertex 19.96800109863281 29.99800109863281 29.99800109863281
    vertex 11.34800052642822 29.99800109863281 22.3380012512207
    vertex 10.69800090789795 29.99800109863281 22.606000900268555
  endloop
endfacet
facet normal -0.0 1.0 -0.0
  outer loop
    vertex 19.96800109863281 29.99800109863281 29.99800109863281
    vertex 10.69800090789795 29.99800109863281 22.606000900268555
    vertex 9.998000144958496 29.99800109863281 22.70000076293945
  endloop
endfacet
facet normal -0.0 1.0 -0.0
  outer loop
    vertex 19.96800109863281 29.99800109863281 29.99800109863281
    vertex 9.998000144958496 29.99800109863281 22.70000076293945
    vertex 0.03 29.99800109863281 29.99800109863281
  endloop
endfacet
facet normal 1.0 0.0 0.0
  outer loop
    vertex 19.96800109863281 29.99800109863281 0.0
    vertex 19.96800109863281 0.0 3.9980001449584956
    vertex 19.96800109863281 0.0 0.0
  endloop
endfacet
facet normal 1.0 0.0 0.0
  outer loop
    vertex 19.96800109863281 0.0 3.9980001449584956
    vertex 19.96800109863281 29.99800109863281 0.0
    vertex 19.96800109863281 25.998001098632812 29.99800109863281
  endloop
endfacet
facet normal 1.0 0.0 0.0
  outer loop
    vertex 19.96800109863281 25.998001098632812 29.99800109863281
    vertex 19.96800109863281 29.99800109863281 0.0
    vertex 19.96800109863281 29.99800109863281 29.99800109863281
  endloop
endfacet
facet normal -0.0 1.0 -0.0
  outer loop
    vertex 4.998000144958496 4.998000144958496 8.998000144958494
    vertex 14.998001098632812 4.998000144958496 3.9980001449584956
    vertex 4.998000144958496 4.998000144958496 3.9980001449584956
  endloop
endfacet
facet normal -0.0 1.0 -0.0
  outer loop
    vertex 14.998001098632812 4.998000144958496 3.9980001449584956
    vertex 4.998000144958496 4.998000144958496 8.998000144958494
    vertex 14.998001098632812 4.998000144958496 8.998000144958494
  endloop
endfacet
facet normal 8.46976176493258e-06 -0.7071250517746034 0.7070885100756678
  outer loop
    vertex 19.96800109863281 0.0 3.9980001449584956
    vertex 14.998001098632812 4.998000144958496 8.998000144958494
    vertex 0.03 0.0 3.9980001449584956
  endloop
endfacet
facet normal 8.46976176493258e-06 -0.7071250517746034 0.7070885100756678
  outer loop
    vertex 14.998001098632812 4.998000144958496 8.998000144958494
    vertex 19.96800109863281 0.0 3.9980001449584956
    vertex 19.96800109863281 25.998001098632812 29.99800109863281
  endloop
endfacet
facet normal 8.46976176493258e-06 -0.7071250517746034 0.7070885100756678
  outer loop
    vertex 14.998001098632812 4.998000144958496 8.998000144958494
    vertex 19.96800109863281 25.998001098632812 29.99800109863281
    vertex 14.998001098632812 20.99800109863281 24.998001098632812
  endloop
endfacet
facet normal 8.46976176493258e-06 -0.7071250517746034 0.7070885100756678
  outer loop
    vertex 14.998001098632812 20.99800109863281 24.998001098632812
    vertex 19.96800109863281 25.998001098632812 29.99800109863281
    vertex 4.998000144958496 20.99800109863281 24.998001098632812
  endloop
endfacet
facet normal 8.46976176493258e-06 -0.7071250517746034 0.7070885100756678
  outer loop
    vertex 0.03 0.0 3.9980001449584956
    vertex 4.998000144958496 4.998000144958496 8.998000144958494
    vertex 0.03 25.998001098632812 29.99800109863281
  endloop
endfacet
facet normal 8.46976176493258e-06 -0.7071250517746034 0.7070885100756678
  outer loop
    vertex 4.998000144958496 4.998000144958496 8.998000144958494
    vertex 0.03 0.0 3.9980001449584956
    vertex 14.998001098632812 4.998000144958496 8.998000144958494
  endloop
endfacet
facet normal 8.46976176493258e-06 -0.7071250517746034 0.7070885100756678
  outer loop
    vertex 0.03 25.998001098632812 29.99800109863281
    vertex 4.998000144958496 4.998000144958496 8.998000144958494
    vertex 4.998000144958496 20.99800109863281 24.998001098632812
  endloop
endfacet
facet normal 8.46976176493258e-06 -0.7071250517746034 0.7070885100756678
  outer loop
    vertex 0.03 25.998001098632812 29.99800109863281
    vertex 4.998000144958496 20.99800109863281 24.998001098632812
    vertex 19.96800109863281 25.998001098632812 29.99800109863281
  endloop
endfacet
facet normal 1.0 -0.0 -0.0
  outer loop
    vertex 4.998000144958496 25.998001098632812 3.9980001449584956
    vertex 4.998000144958496 4.998000144958496 8.998000144958494
    vertex 4.998000144958496 4.998000144958496 3.9980001449584956
  endloop
endfacet
facet normal 1.0 -0.0 -0.0
  outer loop
    vertex 4.998000144958496 4.998000144958496 8.998000144958494
    vertex 4.998000144958496 25.998001098632812 3.9980001449584956
    vertex 4.998000144958496 20.99800109863281 24.998001098632812
  endloop
endfacet
facet normal 1.0 -0.0 -0.0
  outer loop
    vertex 4.998000144958496 20.99800109863281 24.998001098632812
    vertex 4.998000144958496 25.998001098632812 3.9980001449584956
    vertex 4.998000144958496 25.998001098632812 24.998001098632812
  endloop
endfacet
facet normal 0.0 -1.0 0.0
  outer loop
    vertex 19.96800109863281 0.0 3.9980001449584956
    vertex 0.03 0.0 0.0
    vertex 19.96800109863281 0.0 0.0
  endloop
endfacet
facet normal 0.0 -1.0 0.0
  outer loop
    vertex 0.03 0.0 0.0
    vertex 19.96800109863281 0.0 3.9980001449584956
    vertex 0.03 0.0 3.9980001449584956
  endloop
endfacet
facet normal -0.0 -0.0 1.0
  outer loop
    vertex 19.96800109863281 25.998001098632812 29.99800109863281
    vertex 0.03 29.99800109863281 29.99800109863281
    vertex 0.03 25.998001098632812 29.99800109863281
  endloop
endfacet
facet normal -0.0 -0.0 1.0
  outer loop
    vertex 0.03 29.99800109863281 29.99800109863281
    vertex 19.96800109863281 25.998001098632812 29.99800109863281
    vertex 19.96800109863281 29.99800109863281 29.99800109863281
  endloop
endfacet
facet normal 0.6090243424633941 3.4674794055356255e-18 0.7931515304700802
  outer loop
    vertex 8.650000572204588 25.998001098632812 17.660001754760742
    vertex 8.09000015258789 29.99800109863281 18.09000015258789
    vertex 8.09000015258789 25.998001098632812 18.09000015258789
  endloop
endfacet
facet normal 0.6090243424633941 3.4674794055356255e-18 0.7931515304700802
  outer loop
    vertex 8.09000015258789 29.99800109863281 18.09000015258789
    vertex 8.650000572204588 25.998001098632812 17.660001754760742
    vertex 8.650000572204588 29.99800109863281 17.660001754760742
  endloop
endfacet
facet normal 0.9914252614385949 -1.0835718472765915e-18 0.13067498223230745
  outer loop
    vertex 7.392000198364257 29.99800109863281 19.30000114440918
    vertex 7.300000190734863 25.998001098632812 19.998001098632812
    vertex 7.392000198364257 25.998001098632812 19.30000114440918
  endloop
endfacet
facet normal 0.9914252614385949 -1.0835718472765915e-18 0.13067498223230745
  outer loop
    vertex 7.300000190734863 25.998001098632812 19.998001098632812
    vertex 7.392000198364257 29.99800109863281 19.30000114440918
    vertex 7.300000190734863 29.99800109863281 19.998001098632812
  endloop
endfacet
facet normal 0.9914735854050244 -5.572812105274704e-20 -0.1303078257208908
  outer loop
    vertex 7.300000190734863 29.99800109863281 19.998001098632812
    vertex 7.392000198364257 25.998001098632812 20.698001861572262
    vertex 7.300000190734863 25.998001098632812 19.998001098632812
  endloop
endfacet
facet normal 0.9914735854050244 -5.572812105274704e-20 -0.1303078257208908
  outer loop
    vertex 7.392000198364257 25.998001098632812 20.698001861572262
    vertex 7.300000190734863 29.99800109863281 19.998001098632812
    vertex 7.392000198364257 29.99800109863281 20.698001861572262
  endloop
endfacet
facet normal 0.9245011202270668 -0.0 -0.3811793261693224
  outer loop
    vertex 7.392000198364257 29.99800109863281 20.698001861572262
    vertex 7.660000324249267 25.998001098632812 21.348001480102536
    vertex 7.392000198364257 25.998001098632812 20.698001861572262
  endloop
endfacet
facet normal 0.9245011202270668 -0.0 -0.3811793261693224
  outer loop
    vertex 7.660000324249267 25.998001098632812 21.348001480102536
    vertex 7.392000198364257 29.99800109863281 20.698001861572262
    vertex 7.660000324249267 29.99800109863281 21.348001480102536
  endloop
endfacet
facet normal 0.7931500507677027 3.942060330484928e-31 -0.6090262695214309
  outer loop
    vertex 7.660000324249267 29.99800109863281 21.348001480102536
    vertex 8.09000015258789 25.998001098632812 21.90800094604492
    vertex 7.660000324249267 25.998001098632812 21.348001480102536
  endloop
endfacet
facet normal 0.7931500507677027 3.942060330484928e-31 -0.6090262695214309
  outer loop
    vertex 8.09000015258789 25.998001098632812 21.90800094604492
    vertex 7.660000324249267 29.99800109863281 21.348001480102536
    vertex 8.09000015258789 29.99800109863281 21.90800094604492
  endloop
endfacet
facet normal 0.6090260419163939 0.0 -0.7931502255359013
  outer loop
    vertex 8.650000572204588 29.99800109863281 22.3380012512207
    vertex 8.09000015258789 25.998001098632812 21.90800094604492
    vertex 8.09000015258789 29.99800109863281 21.90800094604492
  endloop
endfacet
facet normal 0.6090260419163939 0.0 -0.7931502255359013
  outer loop
    vertex 8.09000015258789 25.998001098632812 21.90800094604492
    vertex 8.650000572204588 29.99800109863281 22.3380012512207
    vertex 8.650000572204588 25.998001098632812 22.3380012512207
  endloop
endfacet
facet normal -0.793151379002489 3.4674787433525166e-18 0.6090245397243449
  outer loop
    vertex 12.338000297546385 29.99800109863281 18.650001525878906
    vertex 11.908000946044922 25.998001098632812 18.09000015258789
    vertex 12.338000297546385 25.998001098632812 18.650001525878906
  endloop
endfacet
facet normal -0.793151379002489 3.4674787433525166e-18 0.6090245397243449
  outer loop
    vertex 11.908000946044922 25.998001098632812 18.09000015258789
    vertex 12.338000297546385 29.99800109863281 18.650001525878906
    vertex 11.908000946044922 29.99800109863281 18.09000015258789
  endloop
endfacet
facet normal -0.3811810651712535 -7.295257648614798e-31 0.9245004032205226
  outer loop
    vertex 11.34800052642822 25.998001098632812 17.660001754760742
    vertex 10.69800090789795 29.99800109863281 17.392000198364258
    vertex 10.69800090789795 25.998001098632812 17.392000198364258
  endloop
endfacet
facet normal -0.3811810651712535 -7.295257648614798e-31 0.9245004032205226
  outer loop
    vertex 10.69800090789795 29.99800109863281 17.392000198364258
    vertex 11.34800052642822 25.998001098632812 17.660001754760742
    vertex 11.34800052642822 29.99800109863281 17.660001754760742
  endloop
endfacet
facet normal 0.7931510527694572 -9.995934060498393e-31 0.609024964587415
  outer loop
    vertex 8.09000015258789 29.99800109863281 18.09000015258789
    vertex 7.660000324249267 25.998001098632812 18.650001525878906
    vertex 8.09000015258789 25.998001098632812 18.09000015258789
  endloop
endfacet
facet normal 0.7931510527694572 -9.995934060498393e-31 0.609024964587415
  outer loop
    vertex 7.660000324249267 25.998001098632812 18.650001525878906
    vertex 8.09000015258789 29.99800109863281 18.09000015258789
    vertex 7.660000324249267 29.99800109863281 18.650001525878906
  endloop
endfacet
facet normal -0.7931503770017206 -3.4674743628320037e-18 -0.6090258446585239
  outer loop
    vertex 11.908000946044922 29.99800109863281 21.90800094604492
    vertex 12.338000297546385 25.998001098632812 21.348001480102536
    vertex 11.908000946044922 25.998001098632812 21.90800094604492
  endloop
endfacet
facet normal -0.7931503770017206 -3.4674743628320037e-18 -0.6090258446585239
  outer loop
    vertex 12.338000297546385 25.998001098632812 21.348001480102536
    vertex 11.908000946044922 29.99800109863281 21.90800094604492
    vertex 12.338000297546385 29.99800109863281 21.348001480102536
  endloop
endfacet
facet normal -0.9914252614385949 -1.0835718472765915e-18 0.13067498223230745
  outer loop
    vertex 12.698000907897947 29.99800109863281 19.998001098632812
    vertex 12.606000900268555 25.998001098632812 19.30000114440918
    vertex 12.698000907897947 25.998001098632812 19.998001098632812
  endloop
endfacet
facet normal -0.9914252614385949 -1.0835718472765915e-18 0.13067498223230745
  outer loop
    vertex 12.606000900268555 25.998001098632812 19.30000114440918
    vertex 12.698000907897947 29.99800109863281 19.998001098632812
    vertex 12.606000900268555 29.99800109863281 19.30000114440918
  endloop
endfacet
facet normal -0.13030649788277154 -1.0503151104180158e-30 0.9914737599198111
  outer loop
    vertex 10.69800090789795 25.998001098632812 17.392000198364258
    vertex 9.998000144958496 29.99800109863281 17.300001144409176
    vertex 9.998000144958496 25.998001098632812 17.300001144409176
  endloop
endfacet
facet normal -0.13030649788277154 -1.0503151104180158e-30 0.9914737599198111
  outer loop
    vertex 9.998000144958496 29.99800109863281 17.300001144409176
    vertex 10.69800090789795 25.998001098632812 17.392000198364258
    vertex 10.69800090789795 29.99800109863281 17.392000198364258
  endloop
endfacet
facet normal -1.0 0.0 0.0
  outer loop
    vertex 14.998001098632812 20.99800109863281 24.998001098632812
    vertex 14.998001098632812 4.998000144958496 3.9980001449584956
    vertex 14.998001098632812 4.998000144958496 8.998000144958494
  endloop
endfacet
facet normal -1.0 0.0 0.0
  outer loop
    vertex 14.998001098632812 4.998000144958496 3.9980001449584956
    vertex 14.998001098632812 20.99800109863281 24.998001098632812
    vertex 14.998001098632812 23.998001098632812 3.9980001449584956
  endloop
endfacet
facet normal -1.0 0.0 0.0
  outer loop
    vertex 14.998001098632812 23.998001098632812 3.9980001449584956
    vertex 14.998001098632812 20.99800109863281 24.998001098632812
    vertex 14.998001098632812 25.998001098632812 24.998001098632812
  endloop
endfacet
facet normal -1.0 0.0 0.0
  outer loop
    vertex 14.998001098632812 23.998001098632812 3.9980001449584956
    vertex 14.998001098632812 25.998001098632812 24.998001098632812
    vertex 14.998001098632812 25.998001098632812 3.9980001449584956
  endloop
endfacet
facet normal -1.0 0.0 0.0
  outer loop
    vertex 14.998001098632812 25.998001098632812 3.9980001449584956
    vertex 14.998001098632812 25.998001098632812 24.998001098632812
    vertex 14.998001098632812 25.998001098632812 5.998000144958495
  endloop
endfacet
facet normal -0.609026041916393 -2.662524343271618e-18 -0.793150225535902
  outer loop
    vertex 11.908000946044922 29.99800109863281 21.90800094604492
    vertex 11.34800052642822 25.998001098632812 22.3380012512207
    vertex 11.34800052642822 29.99800109863281 22.3380012512207
  endloop
endfacet
facet normal -0.609026041916393 -2.662524343271618e-18 -0.793150225535902
  outer loop
    vertex 11.34800052642822 25.998001098632812 22.3380012512207
    vertex 11.908000946044922 29.99800109863281 21.90800094604492
    vertex 11.908000946044922 25.998001098632812 21.90800094604492
  endloop
endfacet
facet normal -0.6090243424633931 6.129996319182452e-18 0.7931515304700811
  outer loop
    vertex 11.908000946044922 25.998001098632812 18.09000015258789
    vertex 11.34800052642822 29.99800109863281 17.660001754760742
    vertex 11.34800052642822 25.998001098632812 17.660001754760742
  endloop
endfacet
facet normal -0.6090243424633931 6.129996319182452e-18 0.7931515304700811
  outer loop
    vertex 11.34800052642822 29.99800109863281 17.660001754760742
    vertex 11.908000946044922 25.998001098632812 18.09000015258789
    vertex 11.908000946044922 29.99800109863281 18.09000015258789
  endloop
endfacet
facet normal -0.9914735854050244 -5.572812105274704e-20 -0.1303078257208908
  outer loop
    vertex 12.606000900268555 29.99800109863281 20.698001861572262
    vertex 12.698000907897947 25.998001098632812 19.998001098632812
    vertex 12.606000900268555 25.998001098632812 20.698001861572262
  endloop
endfacet
facet normal -0.9914735854050244 -5.572812105274704e-20 -0.1303078257208908
  outer loop
    vertex 12.698000907897947 25.998001098632812 19.998001098632812
    vertex 12.606000900268555 29.99800109863281 20.698001861572262
    vertex 12.698000907897947 29.99800109863281 19.998001098632812
  endloop
endfacet
facet normal 0.9245011202270668 -0.0 0.3811793261693224
  outer loop
    vertex 7.660000324249267 29.99800109863281 18.650001525878906
    vertex 7.392000198364257 25.998001098632812 19.30000114440918
    vertex 7.660000324249267 25.998001098632812 18.650001525878906
  endloop
endfacet
facet normal 0.9245011202270668 -0.0 0.3811793261693224
  outer loop
    vertex 7.392000198364257 25.998001098632812 19.30000114440918
    vertex 7.660000324249267 29.99800109863281 18.650001525878906
    vertex 7.392000198364257 29.99800109863281 19.30000114440918
  endloop
endfacet
facet normal -0.9245008812251249 0.0 0.38117990583708317
  outer loop
    vertex 12.606000900268555 29.99800109863281 19.30000114440918
    vertex 12.338000297546385 25.998001098632812 18.650001525878906
    vertex 12.606000900268555 25.998001098632812 19.30000114440918
  endloop
endfacet
facet normal -0.9245008812251249 0.0 0.38117990583708317
  outer loop
    vertex 12.338000297546385 25.998001098632812 18.650001525878906
    vertex 12.606000900268555 29.99800109863281 19.30000114440918
    vertex 12.338000297546385 29.99800109863281 18.650001525878906
  endloop
endfacet
facet normal -0.9245008812251249 0.0 -0.38117990583708317
  outer loop
    vertex 12.338000297546385 29.99800109863281 21.348001480102536
    vertex 12.606000900268555 25.998001098632812 20.698001861572262
    vertex 12.338000297546385 25.998001098632812 21.348001480102536
  endloop
endfacet
facet normal -0.9245008812251249 0.0 -0.38117990583708317
  outer loop
    vertex 12.606000900268555 25.998001098632812 20.698001861572262
    vertex 12.338000297546385 29.99800109863281 21.348001480102536
    vertex 12.606000900268555 29.99800109863281 20.698001861572262
  endloop
endfacet
facet normal 0.13067365078265542 1.1425513928366208e-18 0.9914254369296427
  outer loop
    vertex 9.998000144958496 25.998001098632812 17.300001144409176
    vertex 9.300000190734863 29.99800109863281 17.392000198364258
    vertex 9.300000190734863 25.998001098632812 17.392000198364258
  endloop
endfacet
facet normal 0.13067365078265542 1.1425513928366208e-18 0.9914254369296427
  outer loop
    vertex 9.300000190734863 29.99800109863281 17.392000198364258
    vertex 9.998000144958496 25.998001098632812 17.300001144409176
    vertex 9.998000144958496 29.99800109863281 17.300001144409176
  endloop
endfacet
facet normal 0.38118106517125266 -9.189777801881082e-31 0.9245004032205228
  outer loop
    vertex 9.300000190734863 25.998001098632812 17.392000198364258
    vertex 8.650000572204588 29.99800109863281 17.660001754760742
    vertex 8.650000572204588 25.998001098632812 17.660001754760742
  endloop
endfacet
facet normal 0.38118106517125266 -9.189777801881082e-31 0.9245004032205228
  outer loop
    vertex 8.650000572204588 29.99800109863281 17.660001754760742
    vertex 9.300000190734863 25.998001098632812 17.392000198364258
    vertex 9.300000190734863 29.99800109863281 17.392000198364258
  endloop
endfacet
facet normal -0.9914252614385949 0.1306749822323072 0.0
  outer loop
    vertex 12.698000907897947 9.998000144958496 3.9980001449584956
    vertex 12.606000900268555 9.300000190734863 0.0
    vertex 12.606000900268555 9.300000190734863 3.9980001449584956
  endloop
endfacet
facet normal -0.9914252614385949 0.1306749822323072 0.0
  outer loop
    vertex 12.606000900268555 9.300000190734863 0.0
    vertex 12.698000907897947 9.998000144958496 3.9980001449584956
    vertex 12.698000907897947 9.998000144958496 0.0
  endloop
endfacet
facet normal 0.38117990583708317 -0.9245008812251249 0.0
  outer loop
    vertex 9.300000190734863 12.606000900268555 3.9980001449584956
    vertex 8.650000572204588 12.338000297546385 0.0
    vertex 9.300000190734863 12.606000900268555 0.0
  endloop
endfacet
facet normal 0.38117990583708317 -0.9245008812251249 0.0
  outer loop
    vertex 8.650000572204588 12.338000297546385 0.0
    vertex 9.300000190734863 12.606000900268555 3.9980001449584956
    vertex 8.650000572204588 12.338000297546385 3.9980001449584956
  endloop
endfacet
facet normal 0.1306749822323072 -0.9914252614385949 0.0
  outer loop
    vertex 9.998000144958496 12.698000907897947 3.9980001449584956
    vertex 9.300000190734863 12.606000900268555 0.0
    vertex 9.998000144958496 12.698000907897947 0.0
  endloop
endfacet
facet normal 0.1306749822323072 -0.9914252614385949 0.0
  outer loop
    vertex 9.300000190734863 12.606000900268555 0.0
    vertex 9.998000144958496 12.698000907897947 3.9980001449584956
    vertex 9.300000190734863 12.606000900268555 3.9980001449584956
  endloop
endfacet
facet normal -0.381179905837084 -0.9245008812251246 0.0
  outer loop
    vertex 11.34800052642822 12.338000297546385 3.9980001449584956
    vertex 10.69800090789795 12.606000900268555 0.0
    vertex 11.34800052642822 12.338000297546385 0.0
  endloop
endfacet
facet normal -0.381179905837084 -0.9245008812251246 0.0
  outer loop
    vertex 10.69800090789795 12.606000900268555 0.0
    vertex 11.34800052642822 12.338000297546385 3.9980001449584956
    vertex 10.69800090789795 12.606000900268555 3.9980001449584956
  endloop
endfacet
facet normal 0.609025617053931 0.7931505517693844 -0.0
  outer loop
    vertex 8.09000015258789 8.09000015258789 3.9980001449584956
    vertex 8.650000572204588 7.660000324249267 0.0
    vertex 8.09000015258789 8.09000015258789 0.0
  endloop
endfacet
facet normal 0.609025617053931 0.7931505517693844 -0.0
  outer loop
    vertex 8.650000572204588 7.660000324249267 0.0
    vertex 8.09000015258789 8.09000015258789 3.9980001449584956
    vertex 8.650000572204588 7.660000324249267 3.9980001449584956
  endloop
endfacet
facet normal 0.9914735854050244 -0.13030782572089056 -0.0
  outer loop
    vertex 7.392000198364257 10.69800090789795 0.0
    vertex 7.300000190734863 9.998000144958496 3.9980001449584956
    vertex 7.300000190734863 9.998000144958496 0.0
  endloop
endfacet
facet normal 0.9914735854050244 -0.13030782572089056 -0.0
  outer loop
    vertex 7.300000190734863 9.998000144958496 3.9980001449584956
    vertex 7.392000198364257 10.69800090789795 0.0
    vertex 7.392000198364257 10.69800090789795 3.9980001449584956
  endloop
endfacet
facet normal -0.3811787465011161 1.1084295934025111e-30 -0.9245013592287672
  outer loop
    vertex 11.34800052642822 29.99800109863281 22.3380012512207
    vertex 10.69800090789795 25.998001098632812 22.606000900268555
    vertex 10.69800090789795 29.99800109863281 22.606000900268555
  endloop
endfacet
facet normal -0.3811787465011161 1.1084295934025111e-30 -0.9245013592287672
  outer loop
    vertex 10.69800090789795 25.998001098632812 22.606000900268555
    vertex 11.34800052642822 29.99800109863281 22.3380012512207
    vertex 11.34800052642822 25.998001098632812 22.3380012512207
  endloop
endfacet
facet normal -0.9914735854050244 -0.13030782572089056 0.0
  outer loop
    vertex 12.606000900268555 10.69800090789795 3.9980001449584956
    vertex 12.698000907897947 9.998000144958496 0.0
    vertex 12.698000907897947 9.998000144958496 3.9980001449584956
  endloop
endfacet
facet normal -0.9914735854050244 -0.13030782572089056 0.0
  outer loop
    vertex 12.698000907897947 9.998000144958496 0.0
    vertex 12.606000900268555 10.69800090789795 3.9980001449584956
    vertex 12.606000900268555 10.69800090789795 0.0
  endloop
endfacet
facet normal -0.7931508780029093 0.6090251921909425 0.0
  outer loop
    vertex 12.338000297546385 8.650000572204588 3.9980001449584956
    vertex 11.908000946044922 8.09000015258789 0.0
    vertex 11.908000946044922 8.09000015258789 3.9980001449584956
  endloop
endfacet
facet normal -0.7931508780029093 0.6090251921909425 0.0
  outer loop
    vertex 11.908000946044922 8.09000015258789 0.0
    vertex 12.338000297546385 8.650000572204588 3.9980001449584956
    vertex 12.338000297546385 8.650000572204588 0.0
  endloop
endfacet
facet normal -0.9245008812251246 -0.381179905837084 0.0
  outer loop
    vertex 12.338000297546385 11.34800052642822 3.9980001449584956
    vertex 12.606000900268555 10.69800090789795 0.0
    vertex 12.606000900268555 10.69800090789795 3.9980001449584956
  endloop
endfacet
facet normal -0.9245008812251246 -0.381179905837084 0.0
  outer loop
    vertex 12.606000900268555 10.69800090789795 0.0
    vertex 12.338000297546385 11.34800052642822 3.9980001449584956
    vertex 12.338000297546385 11.34800052642822 0.0
  endloop
endfacet
facet normal 0.1306749822323072 0.9914252614385949 -0.0
  outer loop
    vertex 9.300000190734863 7.392000198364257 3.9980001449584956
    vertex 9.998000144958496 7.300000190734863 0.0
    vertex 9.300000190734863 7.392000198364257 0.0
  endloop
endfacet
facet normal 0.1306749822323072 0.9914252614385949 -0.0
  outer loop
    vertex 9.998000144958496 7.300000190734863 0.0
    vertex 9.300000190734863 7.392000198364257 3.9980001449584956
    vertex 9.998000144958496 7.300000190734863 3.9980001449584956
  endloop
endfacet
facet normal 0.9245011202270665 -0.3811793261693231 -0.0
  outer loop
    vertex 7.660000324249267 11.34800052642822 0.0
    vertex 7.392000198364257 10.69800090789795 3.9980001449584956
    vertex 7.392000198364257 10.69800090789795 0.0
  endloop
endfacet
facet normal 0.9245011202270665 -0.3811793261693231 -0.0
  outer loop
    vertex 7.392000198364257 10.69800090789795 3.9980001449584956
    vertex 7.660000324249267 11.34800052642822 0.0
    vertex 7.660000324249267 11.34800052642822 3.9980001449584956
  endloop
endfacet
facet normal -0.6090256170539301 0.7931505517693851 -0.0
  outer loop
    vertex 11.34800052642822 7.660000324249267 3.9980001449584956
    vertex 11.908000946044922 8.09000015258789 0.0
    vertex 11.34800052642822 7.660000324249267 0.0
  endloop
endfacet
facet normal -0.6090256170539301 0.7931505517693851 -0.0
  outer loop
    vertex 11.908000946044922 8.09000015258789 0.0
    vertex 11.34800052642822 7.660000324249267 3.9980001449584956
    vertex 11.908000946044922 8.09000015258789 3.9980001449584956
  endloop
endfacet
facet normal -0.3811793261693231 0.9245011202270665 -0.0
  outer loop
    vertex 10.69800090789795 7.392000198364257 3.9980001449584956
    vertex 11.34800052642822 7.660000324249267 0.0
    vertex 10.69800090789795 7.392000198364257 0.0
  endloop
endfacet
facet normal -0.3811793261693231 0.9245011202270665 -0.0
  outer loop
    vertex 11.34800052642822 7.660000324249267 0.0
    vertex 10.69800090789795 7.392000198364257 3.9980001449584956
    vertex 11.34800052642822 7.660000324249267 3.9980001449584956
  endloop
endfacet
facet normal -0.6090251921909415 -0.7931508780029098 0.0
  outer loop
    vertex 11.908000946044922 11.908000946044922 3.9980001449584956
    vertex 11.34800052642822 12.338000297546385 0.0
    vertex 11.908000946044922 11.908000946044922 0.0
  endloop
endfacet
facet normal -0.6090251921909415 -0.7931508780029098 0.0
  outer loop
    vertex 11.34800052642822 12.338000297546385 0.0
    vertex 11.908000946044922 11.908000946044922 3.9980001449584956
    vertex 11.34800052642822 12.338000297546385 3.9980001449584956
  endloop
endfacet
facet normal 0.6090251921909425 -0.7931508780029093 0.0
  outer loop
    vertex 8.650000572204588 12.338000297546385 3.9980001449584956
    vertex 8.09000015258789 11.908000946044922 0.0
    vertex 8.650000572204588 12.338000297546385 0.0
  endloop
endfacet
facet normal 0.6090251921909425 -0.7931508780029093 0.0
  outer loop
    vertex 8.09000015258789 11.908000946044922 0.0
    vertex 8.650000572204588 12.338000297546385 3.9980001449584956
    vertex 8.09000015258789 11.908000946044922 3.9980001449584956
  endloop
endfacet
facet normal 0.38117874650111555 -9.189787304855138e-31 -0.9245013592287675
  outer loop
    vertex 9.300000190734863 29.99800109863281 22.606000900268555
    vertex 8.650000572204588 25.998001098632812 22.3380012512207
    vertex 8.650000572204588 29.99800109863281 22.3380012512207
  endloop
endfacet
facet normal 0.38117874650111555 -9.189787304855138e-31 -0.9245013592287675
  outer loop
    vertex 8.650000572204588 25.998001098632812 22.3380012512207
    vertex 9.300000190734863 29.99800109863281 22.606000900268555
    vertex 9.300000190734863 25.998001098632812 22.606000900268555
  endloop
endfacet
facet normal 0.13346546656112232 8.3796275212517e-20 -0.9910534643679029
  outer loop
    vertex 9.998000144958496 29.99800109863281 22.70000076293945
    vertex 9.300000190734863 25.998001098632812 22.606000900268555
    vertex 9.300000190734863 29.99800109863281 22.606000900268555
  endloop
endfacet
facet normal 0.13346546656112232 8.3796275212517e-20 -0.9910534643679029
  outer loop
    vertex 9.300000190734863 25.998001098632812 22.606000900268555
    vertex 9.998000144958496 29.99800109863281 22.70000076293945
    vertex 9.998000144958496 25.998001098632812 22.70000076293945
  endloop
endfacet
facet normal -0.13030782572089056 -0.9914735854050244 0.0
  outer loop
    vertex 10.69800090789795 12.606000900268555 3.9980001449584956
    vertex 9.998000144958496 12.698000907897947 0.0
    vertex 10.69800090789795 12.606000900268555 0.0
  endloop
endfacet
facet normal -0.13030782572089056 -0.9914735854050244 0.0
  outer loop
    vertex 9.998000144958496 12.698000907897947 0.0
    vertex 10.69800090789795 12.606000900268555 3.9980001449584956
    vertex 9.998000144958496 12.698000907897947 3.9980001449584956
  endloop
endfacet
facet normal 0.3811793261693224 0.9245011202270668 -0.0
  outer loop
    vertex 8.650000572204588 7.660000324249267 3.9980001449584956
    vertex 9.300000190734863 7.392000198364257 0.0
    vertex 8.650000572204588 7.660000324249267 0.0
  endloop
endfacet
facet normal 0.3811793261693224 0.9245011202270668 -0.0
  outer loop
    vertex 9.300000190734863 7.392000198364257 0.0
    vertex 8.650000572204588 7.660000324249267 3.9980001449584956
    vertex 9.300000190734863 7.392000198364257 3.9980001449584956
  endloop
endfacet
facet normal -0.13309074966827045 1.083220568707985e-18 -0.991103855482733
  outer loop
    vertex 10.69800090789795 29.99800109863281 22.606000900268555
    vertex 9.998000144958496 25.998001098632812 22.70000076293945
    vertex 9.998000144958496 29.99800109863281 22.70000076293945
  endloop
endfacet
facet normal -0.13309074966827045 1.083220568707985e-18 -0.991103855482733
  outer loop
    vertex 9.998000144958496 25.998001098632812 22.70000076293945
    vertex 10.69800090789795 29.99800109863281 22.606000900268555
    vertex 10.69800090789795 25.998001098632812 22.606000900268555
  endloop
endfacet
facet normal 0.9245011202270668 0.3811793261693224 -0.0
  outer loop
    vertex 7.392000198364257 9.300000190734863 0.0
    vertex 7.660000324249267 8.650000572204588 3.9980001449584956
    vertex 7.660000324249267 8.650000572204588 0.0
  endloop
endfacet
facet normal 0.9245011202270668 0.3811793261693224 -0.0
  outer loop
    vertex 7.660000324249267 8.650000572204588 3.9980001449584956
    vertex 7.392000198364257 9.300000190734863 0.0
    vertex 7.392000198364257 9.300000190734863 3.9980001449584956
  endloop
endfacet
facet normal 0.9914252614385949 0.1306749822323072 -0.0
  outer loop
    vertex 7.300000190734863 9.998000144958496 0.0
    vertex 7.392000198364257 9.300000190734863 3.9980001449584956
    vertex 7.392000198364257 9.300000190734863 0.0
  endloop
endfacet
facet normal 0.9914252614385949 0.1306749822323072 -0.0
  outer loop
    vertex 7.392000198364257 9.300000190734863 3.9980001449584956
    vertex 7.300000190734863 9.998000144958496 0.0
    vertex 7.300000190734863 9.998000144958496 3.9980001449584956
  endloop
endfacet
facet normal -0.13030782572089056 0.9914735854050244 -0.0
  outer loop
    vertex 9.998000144958496 7.300000190734863 3.9980001449584956
    vertex 10.69800090789795 7.392000198364257 0.0
    vertex 9.998000144958496 7.300000190734863 0.0
  endloop
endfacet
facet normal -0.13030782572089056 0.9914735854050244 -0.0
  outer loop
    vertex 10.69800090789795 7.392000198364257 0.0
    vertex 9.998000144958496 7.300000190734863 3.9980001449584956
    vertex 10.69800090789795 7.392000198364257 3.9980001449584956
  endloop
endfacet
facet normal -0.7931508780029098 -0.6090251921909415 0.0
  outer loop
    vertex 11.908000946044922 11.908000946044922 3.9980001449584956
    vertex 12.338000297546385 11.34800052642822 0.0
    vertex 12.338000297546385 11.34800052642822 3.9980001449584956
  endloop
endfacet
facet normal -0.7931508780029098 -0.6090251921909415 0.0
  outer loop
    vertex 12.338000297546385 11.34800052642822 0.0
    vertex 11.908000946044922 11.908000946044922 3.9980001449584956
    vertex 11.908000946044922 11.908000946044922 0.0
  endloop
endfacet
facet normal -0.9245008812251249 0.38117990583708317 0.0
  outer loop
    vertex 12.606000900268555 9.300000190734863 3.9980001449584956
    vertex 12.338000297546385 8.650000572204588 0.0
    vertex 12.338000297546385 8.650000572204588 3.9980001449584956
  endloop
endfacet
facet normal -0.9245008812251249 0.38117990583708317 0.0
  outer loop
    vertex 12.338000297546385 8.650000572204588 0.0
    vertex 12.606000900268555 9.300000190734863 3.9980001449584956
    vertex 12.606000900268555 9.300000190734863 0.0
  endloop
endfacet
facet normal 0.7931505517693844 0.609025617053931 -0.0
  outer loop
    vertex 7.660000324249267 8.650000572204588 0.0
    vertex 8.09000015258789 8.09000015258789 3.9980001449584956
    vertex 8.09000015258789 8.09000015258789 0.0
  endloop
endfacet
facet normal 0.7931505517693844 0.609025617053931 -0.0
  outer loop
    vertex 8.09000015258789 8.09000015258789 3.9980001449584956
    vertex 7.660000324249267 8.650000572204588 0.0
    vertex 7.660000324249267 8.650000572204588 3.9980001449584956
  endloop
endfacet
facet normal 0.7931505517693851 -0.6090256170539301 -0.0
  outer loop
    vertex 8.09000015258789 11.908000946044922 0.0
    vertex 7.660000324249267 11.34800052642822 3.9980001449584956
    vertex 7.660000324249267 11.34800052642822 0.0
  endloop
endfacet
facet normal 0.7931505517693851 -0.6090256170539301 -0.0
  outer loop
    vertex 7.660000324249267 11.34800052642822 3.9980001449584956
    vertex 8.09000015258789 11.908000946044922 0.0
    vertex 8.09000015258789 11.908000946044922 3.9980001449584956
  endloop
endfacet
facet normal 0.0 -1.0 0.0
  outer loop
    vertex 14.998001098632812 25.998001098632812 5.998000144958495
    vertex 10.69800090789795 25.998001098632812 17.392000198364258
    vertex 9.998000144958496 25.998001098632812 17.300001144409176
  endloop
endfacet
facet normal 0.0 -1.0 0.0
  outer loop
    vertex 10.69800090789795 25.998001098632812 17.392000198364258
    vertex 14.998001098632812 25.998001098632812 5.998000144958495
    vertex 11.34800052642822 25.998001098632812 17.660001754760742
  endloop
endfacet
facet normal 0.0 -1.0 0.0
  outer loop
    vertex 11.34800052642822 25.998001098632812 17.660001754760742
    vertex 14.998001098632812 25.998001098632812 5.998000144958495
    vertex 11.908000946044922 25.998001098632812 18.09000015258789
  endloop
endfacet
facet normal 0.0 -1.0 0.0
  outer loop
    vertex 11.908000946044922 25.998001098632812 18.09000015258789
    vertex 14.998001098632812 25.998001098632812 5.998000144958495
    vertex 12.338000297546385 25.998001098632812 18.650001525878906
  endloop
endfacet
facet normal 0.0 -1.0 0.0
  outer loop
    vertex 12.338000297546385 25.998001098632812 18.650001525878906
    vertex 14.998001098632812 25.998001098632812 5.998000144958495
    vertex 14.998001098632812 25.998001098632812 24.998001098632812
  endloop
endfacet
facet normal 0.0 -1.0 0.0
  outer loop
    vertex 12.338000297546385 25.998001098632812 18.650001525878906
    vertex 14.998001098632812 25.998001098632812 24.998001098632812
    vertex 12.606000900268555 25.998001098632812 19.30000114440918
  endloop
endfacet
facet normal 0.0 -1.0 0.0
  outer loop
    vertex 12.606000900268555 25.998001098632812 19.30000114440918
    vertex 14.998001098632812 25.998001098632812 24.998001098632812
    vertex 12.698000907897947 25.998001098632812 19.998001098632812
  endloop
endfacet
facet normal 0.0 -1.0 0.0
  outer loop
    vertex 12.698000907897947 25.998001098632812 19.998001098632812
    vertex 14.998001098632812 25.998001098632812 24.998001098632812
    vertex 12.606000900268555 25.998001098632812 20.698001861572262
  endloop
endfacet
facet normal 0.0 -1.0 0.0
  outer loop
    vertex 12.606000900268555 25.998001098632812 20.698001861572262
    vertex 14.998001098632812 25.998001098632812 24.998001098632812
    vertex 12.338000297546385 25.998001098632812 21.348001480102536
  endloop
endfacet
facet normal 0.0 -1.0 0.0
  outer loop
    vertex 12.338000297546385 25.998001098632812 21.348001480102536
    vertex 14.998001098632812 25.998001098632812 24.998001098632812
    vertex 11.908000946044922 25.998001098632812 21.90800094604492
  endloop
endfacet
facet normal 0.0 -1.0 0.0
  outer loop
    vertex 11.908000946044922 25.998001098632812 21.90800094604492
    vertex 14.998001098632812 25.998001098632812 24.998001098632812
    vertex 11.34800052642822 25.998001098632812 22.3380012512207
  endloop
endfacet
facet normal 0.0 -1.0 0.0
  outer loop
    vertex 11.34800052642822 25.998001098632812 22.3380012512207
    vertex 14.998001098632812 25.998001098632812 24.998001098632812
    vertex 10.69800090789795 25.998001098632812 22.606000900268555
  endloop
endfacet
facet normal 0.0 -1.0 0.0
  outer loop
    vertex 10.69800090789795 25.998001098632812 22.606000900268555
    vertex 14.998001098632812 25.998001098632812 24.998001098632812
    vertex 9.998000144958496 25.998001098632812 22.70000076293945
  endloop
endfacet
facet normal 0.0 -1.0 0.0
  outer loop
    vertex 14.998001098632812 25.998001098632812 5.998000144958495
    vertex 4.998000144958496 25.998001098632812 3.9980001449584956
    vertex 14.998001098632812 25.998001098632812 3.9980001449584956
  endloop
endfacet
facet normal 0.0 -1.0 0.0
  outer loop
    vertex 4.998000144958496 25.998001098632812 3.9980001449584956
    vertex 14.998001098632812 25.998001098632812 5.998000144958495
    vertex 7.660000324249267 25.998001098632812 18.650001525878906
  endloop
endfacet
facet normal 0.0 -1.0 0.0
  outer loop
    vertex 4.998000144958496 25.998001098632812 3.9980001449584956
    vertex 7.660000324249267 25.998001098632812 18.650001525878906
    vertex 4.998000144958496 25.998001098632812 24.998001098632812
  endloop
endfacet
facet normal 0.0 -1.0 0.0
  outer loop
    vertex 7.660000324249267 25.998001098632812 18.650001525878906
    vertex 14.998001098632812 25.998001098632812 5.998000144958495
    vertex 8.09000015258789 25.998001098632812 18.09000015258789
  endloop
endfacet
facet normal 0.0 -1.0 0.0
  outer loop
    vertex 8.09000015258789 25.998001098632812 18.09000015258789
    vertex 14.998001098632812 25.998001098632812 5.998000144958495
    vertex 8.650000572204588 25.998001098632812 17.660001754760742
  endloop
endfacet
facet normal 0.0 -1.0 0.0
  outer loop
    vertex 8.650000572204588 25.998001098632812 17.660001754760742
    vertex 14.998001098632812 25.998001098632812 5.998000144958495
    vertex 9.300000190734863 25.998001098632812 17.392000198364258
  endloop
endfacet
facet normal 0.0 -1.0 0.0
  outer loop
    vertex 9.300000190734863 25.998001098632812 17.392000198364258
    vertex 14.998001098632812 25.998001098632812 5.998000144958495
    vertex 9.998000144958496 25.998001098632812 17.300001144409176
  endloop
endfacet
facet normal 0.0 -1.0 0.0
  outer loop
    vertex 4.998000144958496 25.998001098632812 24.998001098632812
    vertex 7.660000324249267 25.998001098632812 18.650001525878906
    vertex 7.392000198364257 25.998001098632812 19.30000114440918
  endloop
endfacet
facet normal 0.0 -1.0 0.0
  outer loop
    vertex 4.998000144958496 25.998001098632812 24.998001098632812
    vertex 7.392000198364257 25.998001098632812 19.30000114440918
    vertex 7.300000190734863 25.998001098632812 19.998001098632812
  endloop
endfacet
facet normal 0.0 -1.0 0.0
  outer loop
    vertex 4.998000144958496 25.998001098632812 24.998001098632812
    vertex 7.300000190734863 25.998001098632812 19.998001098632812
    vertex 7.392000198364257 25.998001098632812 20.698001861572262
  endloop
endfacet
facet normal 0.0 -1.0 0.0
  outer loop
    vertex 4.998000144958496 25.998001098632812 24.998001098632812
    vertex 7.392000198364257 25.998001098632812 20.698001861572262
    vertex 7.660000324249267 25.998001098632812 21.348001480102536
  endloop
endfacet
facet normal 0.0 -1.0 0.0
  outer loop
    vertex 4.998000144958496 25.998001098632812 24.998001098632812
    vertex 7.660000324249267 25.998001098632812 21.348001480102536
    vertex 8.09000015258789 25.998001098632812 21.90800094604492
  endloop
endfacet
facet normal 0.0 -1.0 0.0
  outer loop
    vertex 4.998000144958496 25.998001098632812 24.998001098632812
    vertex 8.09000015258789 25.998001098632812 21.90800094604492
    vertex 8.650000572204588 25.998001098632812 22.3380012512207
  endloop
endfacet
facet normal 0.0 -1.0 0.0
  outer loop
    vertex 4.998000144958496 25.998001098632812 24.998001098632812
    vertex 8.650000572204588 25.998001098632812 22.3380012512207
    vertex 9.300000190734863 25.998001098632812 22.606000900268555
  endloop
endfacet
facet normal 0.0 -1.0 0.0
  outer loop
    vertex 4.998000144958496 25.998001098632812 24.998001098632812
    vertex 9.300000190734863 25.998001098632812 22.606000900268555
    vertex 9.998000144958496 25.998001098632812 22.70000076293945
  endloop
endfacet
facet normal 0.0 -1.0 0.0
  outer loop
    vertex 4.998000144958496 25.998001098632812 24.998001098632812
    vertex 9.998000144958496 25.998001098632812 22.70000076293945
    vertex 14.998001098632812 25.998001098632812 24.998001098632812
  endloop
endfacet
facet normal 0.0 0.0 -1.0
  outer loop
    vertex 14.998001098632812 25.998001098632812 24.998001098632812
    vertex 4.998000144958496 20.99800109863281 24.998001098632812
    vertex 4.998000144958496 25.998001098632812 24.998001098632812
  endloop
endfacet
facet normal 0.0 0.0 -1.0
  outer loop
    vertex 4.998000144958496 20.99800109863281 24.998001098632812
    vertex 14.998001098632812 25.998001098632812 24.998001098632812
    vertex 14.998001098632812 20.99800109863281 24.998001098632812
  endloop
endfacet
facet normal 0.0 0.0 -1.0
  outer loop
    vertex 19.96800109863281 29.99800109863281 0.0
    vertex 0.03 0.0 0.0
    vertex 0.03 29.99800109863281 0.0
  endloop
endfacet
facet normal 0.0 0.0 -1.0
  outer loop
    vertex 0.03 0.0 0.0
    vertex 19.96800109863281 29.99800109863281 0.0
    vertex 7.660000324249267 11.34800052642822 0.0
  endloop
endfacet
facet normal 0.0 0.0 -1.0
  outer loop
    vertex 0.03 0.0 0.0
    vertex 7.660000324249267 11.34800052642822 0.0
    vertex 7.392000198364257 10.69800090789795 0.0
  endloop
endfacet
facet normal 0.0 0.0 -1.0
  outer loop
    vertex 0.03 0.0 0.0
    vertex 7.392000198364257 10.69800090789795 0.0
    vertex 7.300000190734863 9.998000144958496 0.0
  endloop
endfacet
facet normal 0.0 0.0 -1.0
  outer loop
    vertex 7.660000324249267 11.34800052642822 0.0
    vertex 19.96800109863281 29.99800109863281 0.0
    vertex 8.09000015258789 11.908000946044922 0.0
  endloop
endfacet
facet normal 0.0 0.0 -1.0
  outer loop
    vertex 8.09000015258789 11.908000946044922 0.0
    vertex 19.96800109863281 29.99800109863281 0.0
    vertex 8.650000572204588 12.338000297546385 0.0
  endloop
endfacet
facet normal 0.0 0.0 -1.0
  outer loop
    vertex 8.650000572204588 12.338000297546385 0.0
    vertex 19.96800109863281 29.99800109863281 0.0
    vertex 9.300000190734863 12.606000900268555 0.0
  endloop
endfacet
facet normal 0.0 0.0 -1.0
  outer loop
    vertex 9.300000190734863 12.606000900268555 0.0
    vertex 19.96800109863281 29.99800109863281 0.0
    vertex 9.998000144958496 12.698000907897947 0.0
  endloop
endfacet
facet normal 0.0 0.0 -1.0
  outer loop
    vertex 9.998000144958496 12.698000907897947 0.0
    vertex 19.96800109863281 29.99800109863281 0.0
    vertex 10.69800090789795 12.606000900268555 0.0
  endloop
endfacet
facet normal 0.0 0.0 -1.0
  outer loop
    vertex 10.69800090789795 12.606000900268555 0.0
    vertex 19.96800109863281 29.99800109863281 0.0
    vertex 11.34800052642822 12.338000297546385 0.0
  endloop
endfacet
facet normal 0.0 0.0 -1.0
  outer loop
    vertex 11.34800052642822 12.338000297546385 0.0
    vertex 19.96800109863281 29.99800109863281 0.0
    vertex 11.908000946044922 11.908000946044922 0.0
  endloop
endfacet
facet normal 0.0 0.0 -1.0
  outer loop
    vertex 11.908000946044922 11.908000946044922 0.0
    vertex 19.96800109863281 29.99800109863281 0.0
    vertex 12.338000297546385 11.34800052642822 0.0
  endloop
endfacet
facet normal 0.0 0.0 -1.0
  outer loop
    vertex 12.338000297546385 11.34800052642822 0.0
    vertex 19.96800109863281 29.99800109863281 0.0
    vertex 12.606000900268555 10.69800090789795 0.0
  endloop
endfacet
facet normal 0.0 0.0 -1.0
  outer loop
    vertex 12.606000900268555 10.69800090789795 0.0
    vertex 19.96800109863281 29.99800109863281 0.0
    vertex 12.698000907897947 9.998000144958496 0.0
  endloop
endfacet
facet normal 0.0 0.0 -1.0
  outer loop
    vertex 0.03 0.0 0.0
    vertex 8.650000572204588 7.660000324249267 0.0
    vertex 19.96800109863281 0.0 0.0
  endloop
endfacet
facet normal 0.0 0.0 -1.0
  outer loop
    vertex 8.650000572204588 7.660000324249267 0.0
    vertex 0.03 0.0 0.0
    vertex 8.09000015258789 8.09000015258789 0.0
  endloop
endfacet
facet normal 0.0 0.0 -1.0
  outer loop
    vertex 8.09000015258789 8.09000015258789 0.0
    vertex 0.03 0.0 0.0
    vertex 7.660000324249267 8.650000572204588 0.0
  endloop
endfacet
facet normal 0.0 0.0 -1.0
  outer loop
    vertex 7.660000324249267 8.650000572204588 0.0
    vertex 0.03 0.0 0.0
    vertex 7.392000198364257 9.300000190734863 0.0
  endloop
endfacet
facet normal 0.0 0.0 -1.0
  outer loop
    vertex 7.392000198364257 9.300000190734863 0.0
    vertex 0.03 0.0 0.0
    vertex 7.300000190734863 9.998000144958496 0.0
  endloop
endfacet
facet normal 0.0 0.0 -1.0
  outer loop
    vertex 19.96800109863281 0.0 0.0
    vertex 8.650000572204588 7.660000324249267 0.0
    vertex 9.300000190734863 7.392000198364257 0.0
  endloop
endfacet
facet normal 0.0 0.0 -1.0
  outer loop
    vertex 19.96800109863281 0.0 0.0
    vertex 9.300000190734863 7.392000198364257 0.0
    vertex 9.998000144958496 7.300000190734863 0.0
  endloop
endfacet
facet normal 0.0 0.0 -1.0
  outer loop
    vertex 19.96800109863281 0.0 0.0
    vertex 9.998000144958496 7.300000190734863 0.0
    vertex 10.69800090789795 7.392000198364257 0.0
  endloop
endfacet
facet normal 0.0 0.0 -1.0
  outer loop
    vertex 19.96800109863281 0.0 0.0
    vertex 10.69800090789795 7.392000198364257 0.0
    vertex 11.34800052642822 7.660000324249267 0.0
  endloop
endfacet
facet normal 0.0 0.0 -1.0
  outer loop
    vertex 19.96800109863281 0.0 0.0
    vertex 11.34800052642822 7.660000324249267 0.0
    vertex 11.908000946044922 8.09000015258789 0.0
  endloop
endfacet
facet normal 0.0 0.0 -1.0
  outer loop
    vertex 19.96800109863281 0.0 0.0
    vertex 11.908000946044922 8.09000015258789 0.0
    vertex 12.338000297546385 8.650000572204588 0.0
  endloop
endfacet
facet normal 0.0 0.0 -1.0
  outer loop
    vertex 19.96800109863281 0.0 0.0
    vertex 12.338000297546385 8.650000572204588 0.0
    vertex 12.606000900268555 9.300000190734863 0.0
  endloop
endfacet
facet normal 0.0 0.0 -1.0
  outer loop
    vertex 19.96800109863281 0.0 0.0
    vertex 12.606000900268555 9.300000190734863 0.0
    vertex 12.698000907897947 9.998000144958496 0.0
  endloop
endfacet
facet normal 0.0 0.0 -1.0
  outer loop
    vertex 19.96800109863281 0.0 0.0
    vertex 12.698000907897947 9.998000144958496 0.0
    vertex 19.96800109863281 29.99800109863281 0.0
  endloop
endfacet
facet normal -0.0 -0.0 1.0
  outer loop
    vertex 4.998000144958496 4.998000144958496 3.9980001449584956
    vertex 7.392000198364257 9.300000190734863 3.9980001449584956
    vertex 4.998000144958496 25.998001098632812 3.9980001449584956
  endloop
endfacet
facet normal -0.0 -0.0 1.0
  outer loop
    vertex 7.392000198364257 9.300000190734863 3.9980001449584956
    vertex 4.998000144958496 4.998000144958496 3.9980001449584956
    vertex 7.660000324249267 8.650000572204588 3.9980001449584956
  endloop
endfacet
facet normal -0.0 -0.0 1.0
  outer loop
    vertex 7.660000324249267 8.650000572204588 3.9980001449584956
    vertex 4.998000144958496 4.998000144958496 3.9980001449584956
    vertex 8.09000015258789 8.09000015258789 3.9980001449584956
  endloop
endfacet
facet normal -0.0 -0.0 1.0
  outer loop
    vertex 8.09000015258789 8.09000015258789 3.9980001449584956
    vertex 4.998000144958496 4.998000144958496 3.9980001449584956
    vertex 8.650000572204588 7.660000324249267 3.9980001449584956
  endloop
endfacet
facet normal -0.0 -0.0 1.0
  outer loop
    vertex 8.650000572204588 7.660000324249267 3.9980001449584956
    vertex 4.998000144958496 4.998000144958496 3.9980001449584956
    vertex 14.998001098632812 4.998000144958496 3.9980001449584956
  endloop
endfacet
facet normal -0.0 -0.0 1.0
  outer loop
    vertex 4.998000144958496 25.998001098632812 3.9980001449584956
    vertex 7.392000198364257 9.300000190734863 3.9980001449584956
    vertex 7.300000190734863 9.998000144958496 3.9980001449584956
  endloop
endfacet
facet normal -0.0 -0.0 1.0
  outer loop
    vertex 8.650000572204588 7.660000324249267 3.9980001449584956
    vertex 14.998001098632812 4.998000144958496 3.9980001449584956
    vertex 9.300000190734863 7.392000198364257 3.9980001449584956
  endloop
endfacet
facet normal -0.0 -0.0 1.0
  outer loop
    vertex 9.300000190734863 7.392000198364257 3.9980001449584956
    vertex 14.998001098632812 4.998000144958496 3.9980001449584956
    vertex 9.998000144958496 7.300000190734863 3.9980001449584956
  endloop
endfacet
facet normal -0.0 -0.0 1.0
  outer loop
    vertex 9.998000144958496 7.300000190734863 3.9980001449584956
    vertex 14.998001098632812 4.998000144958496 3.9980001449584956
    vertex 10.69800090789795 7.392000198364257 3.9980001449584956
  endloop
endfacet
facet normal -0.0 -0.0 1.0
  outer loop
    vertex 10.69800090789795 7.392000198364257 3.9980001449584956
    vertex 14.998001098632812 4.998000144958496 3.9980001449584956
    vertex 11.34800052642822 7.660000324249267 3.9980001449584956
  endloop
endfacet
facet normal -0.0 -0.0 1.0
  outer loop
    vertex 11.34800052642822 7.660000324249267 3.9980001449584956
    vertex 14.998001098632812 4.998000144958496 3.9980001449584956
    vertex 11.908000946044922 8.09000015258789 3.9980001449584956
  endloop
endfacet
facet normal -0.0 -0.0 1.0
  outer loop
    vertex 11.908000946044922 8.09000015258789 3.9980001449584956
    vertex 14.998001098632812 4.998000144958496 3.9980001449584956
    vertex 12.338000297546385 8.650000572204588 3.9980001449584956
  endloop
endfacet
facet normal -0.0 -0.0 1.0
  outer loop
    vertex 12.338000297546385 8.650000572204588 3.9980001449584956
    vertex 14.998001098632812 4.998000144958496 3.9980001449584956
    vertex 12.606000900268555 9.300000190734863 3.9980001449584956
  endloop
endfacet
facet normal -0.0 -0.0 1.0
  outer loop
    vertex 12.606000900268555 9.300000190734863 3.9980001449584956
    vertex 14.998001098632812 4.998000144958496 3.9980001449584956
    vertex 12.698000907897947 9.998000144958496 3.9980001449584956
  endloop
endfacet
facet normal -0.0 -0.0 1.0
  outer loop
    vertex 4.998000144958496 25.998001098632812 3.9980001449584956
    vertex 7.660000324249267 11.34800052642822 3.9980001449584956
    vertex 14.998001098632812 25.998001098632812 3.9980001449584956
  endloop
endfacet
facet normal -0.0 -0.0 1.0
  outer loop
    vertex 7.660000324249267 11.34800052642822 3.9980001449584956
    vertex 4.998000144958496 25.998001098632812 3.9980001449584956
    vertex 7.392000198364257 10.69800090789795 3.9980001449584956
  endloop
endfacet
facet normal -0.0 -0.0 1.0
  outer loop
    vertex 7.392000198364257 10.69800090789795 3.9980001449584956
    vertex 4.998000144958496 25.998001098632812 3.9980001449584956
    vertex 7.300000190734863 9.998000144958496 3.9980001449584956
  endloop
endfacet
facet normal -0.0 -0.0 1.0
  outer loop
    vertex 14.998001098632812 25.998001098632812 3.9980001449584956
    vertex 7.660000324249267 11.34800052642822 3.9980001449584956
    vertex 8.09000015258789 11.908000946044922 3.9980001449584956
  endloop
endfacet
facet normal -0.0 -0.0 1.0
  outer loop
    vertex 14.998001098632812 25.998001098632812 3.9980001449584956
    vertex 8.09000015258789 11.908000946044922 3.9980001449584956
    vertex 8.650000572204588 12.338000297546385 3.9980001449584956
  endloop
endfacet
facet normal -0.0 -0.0 1.0
  outer loop
    vertex 14.998001098632812 25.998001098632812 3.9980001449584956
    vertex 8.650000572204588 12.338000297546385 3.9980001449584956
    vertex 9.300000190734863 12.606000900268555 3.9980001449584956
  endloop
endfacet
facet normal -0.0 -0.0 1.0
  outer loop
    vertex 14.998001098632812 25.998001098632812 3.9980001449584956
    vertex 9.300000190734863 12.606000900268555 3.9980001449584956
    vertex 9.998000144958496 12.698000907897947 3.9980001449584956
  endloop
endfacet
facet normal -0.0 -0.0 1.0
  outer loop
    vertex 14.998001098632812 25.998001098632812 3.9980001449584956
    vertex 9.998000144958496 12.698000907897947 3.9980001449584956
    vertex 10.69800090789795 12.606000900268555 3.9980001449584956
  endloop
endfacet
facet normal -0.0 -0.0 1.0
  outer loop
    vertex 14.998001098632812 25.998001098632812 3.9980001449584956
    vertex 10.69800090789795 12.606000900268555 3.9980001449584956
    vertex 11.34800052642822 12.338000297546385 3.9980001449584956
  endloop
endfacet
facet normal -0.0 -0.0 1.0
  outer loop
    vertex 14.998001098632812 25.998001098632812 3.9980001449584956
    vertex 11.34800052642822 12.338000297546385 3.9980001449584956
    vertex 11.908000946044922 11.908000946044922 3.9980001449584956
  endloop
endfacet
facet normal -0.0 -0.0 1.0
  outer loop
    vertex 14.998001098632812 25.998001098632812 3.9980001449584956
    vertex 11.908000946044922 11.908000946044922 3.9980001449584956
    vertex 12.338000297546385 11.34800052642822 3.9980001449584956
  endloop
endfacet
facet normal -0.0 -0.0 1.0
  outer loop
    vertex 14.998001098632812 25.998001098632812 3.9980001449584956
    vertex 12.338000297546385 11.34800052642822 3.9980001449584956
    vertex 12.606000900268555 10.69800090789795 3.9980001449584956
  endloop
endfacet
facet normal -0.0 -0.0 1.0
  outer loop
    vertex 14.998001098632812 25.998001098632812 3.9980001449584956
    vertex 12.606000900268555 10.69800090789795 3.9980001449584956
    vertex 12.698000907897947 9.998000144958496 3.9980001449584956
  endloop
endfacet
facet normal -0.0 -0.0 1.0
  outer loop
    vertex 14.998001098632812 25.998001098632812 3.9980001449584956
    vertex 12.698000907897947 9.998000144958496 3.9980001449584956
    vertex 14.998001098632812 4.998000144958496 3.9980001449584956
  endloop
endfacet
facet normal -0.0 -0.0 1.0
  outer loop
    vertex 14.998001098632812 25.998001098632812 3.9980001449584956
    vertex 14.998001098632812 4.998000144958496 3.9980001449584956
    vertex 14.998001098632812 23.998001098632812 3.9980001449584956
  endloop
endfacet
facet normal -1.0 0.0 0.0
  outer loop
    vertex 0.03 25.998001098632812 29.99800109863281
    vertex 0.03 0.0 0.0
    vertex 0.03 0.0 3.9980001449584956
  endloop
endfacet
facet normal -1.0 0.0 0.0
  outer loop
    vertex 0.03 0.0 0.0
    vertex 0.03 25.998001098632812 29.99800109863281
    vertex 0.03 29.99800109863281 0.0
  endloop
endfacet
facet normal -1.0 0.0 0.0
  outer loop
    vertex 0.03 29.99800109863281 0.0
    vertex 0.03 25.998001098632812 29.99800109863281
    vertex 0.03 29.99800109863281 29.99800109863281
  endloop
endfacet
endsolid AutoSave_vmax40doubleextrudert final 2016
